<?xml version="1.0" standalone="no"?>
<!DOCTYPE svg PUBLIC "-//W3C//DTD SVG 1.1//EN" "http://www.w3.org/Graphics/SVG/1.1/DTD/svg11.dtd" >
<svg xmlns="http://www.w3.org/2000/svg" xmlns:xlink="http://www.w3.org/1999/xlink" version="1.1">
<metadata>
Created by FontForge 20161116 at Mon Jun 13 17:22:38 2011
 By Jimmy Warting
Designed by Christian Schwartz 2004?2010. Originally designed 1957-1961 by Max Miedinger with art direction by Eduard Hoffmann. Released as Neue Haas Grotesk by the Haas'sche Schriftgiesserei, and then revised and released as Helvetica by Linotype AG. Revival originally commissioned in 2004 by Mark Porter at The Guardian. Completed in 2010 for Richard Turley at Bloomberg Businessweek. Thinnest weight designed by Berton Hasebe.
</metadata>
<defs>
<font id="NeueHaasGroteskText-Bold" horiz-adv-x="604" >
  <font-face 
    font-family="NeueHaasGroteskText"
    font-weight="700"
    font-stretch="normal"
    units-per-em="1000"
    panose-1="2 0 8 3 0 0 0 2 0 3"
    ascent="800"
    descent="-200"
    x-height="532"
    cap-height="744"
    bbox="-274 -263 1315 997"
    underline-thickness="50"
    underline-position="-100"
    unicode-range="U+0020-FB02"
  />
<missing-glyph horiz-adv-x="241" 
 />
    <glyph glyph-name=".notdef" horiz-adv-x="241" 
 />
    <glyph glyph-name="space" unicode=" " horiz-adv-x="241" 
 />
    <glyph glyph-name="exclam" unicode="!" horiz-adv-x="289" 
d="M104 259l-41 299v186h163v-186l-41 -299h-81zM61 0v164h167v-164h-167z" />
    <glyph glyph-name="quotedbl" unicode="&#x22;" horiz-adv-x="451" 
d="M264 458v286h135v-286h-135zM52 458v286h137v-286h-137z" />
    <glyph glyph-name="numbersign" unicode="#" horiz-adv-x="639" 
d="M72 422l21 118h97l28 173h100l-28 -173h115l28 173h99l-28 -173h100l-20 -118h-99l-19 -120h99l-20 -117h-98l-29 -185h-100l30 185h-115l-29 -185h-100l29 185h-99l21 117h97l19 120h-99zM271 422l-19 -120h115l19 120h-115z" />
    <glyph glyph-name="dollar" unicode="$" horiz-adv-x="662" 
d="M304 -124v117c-177 11 -273 98 -278 235h163c8 -64 44 -102 115 -111v184c-2 0 -3 0 -4 1c-141 35 -252 68 -252 215c0 127 111 199 256 204v79h64v-80c147 -11 236 -83 244 -208h-154c-7 47 -38 76 -90 87v-168l13 -3c139 -35 247 -75 247 -217
c0 -137 -112 -210 -260 -218v-117h-64zM465 201c0 47 -33 64 -97 83v-167c53 7 97 35 97 84zM210 525c0 -41 27 -59 94 -78v155c-60 -7 -94 -36 -94 -77z" />
    <glyph glyph-name="percent" unicode="%" horiz-adv-x="931" 
d="M218 312c-108 0 -187 80 -187 208c0 126 79 207 187 207c110 0 186 -80 186 -207c0 -128 -78 -208 -186 -208zM224 0l388 712h94l-388 -712h-94zM712 -18c-108 0 -187 82 -187 209c0 125 79 208 187 208c111 0 188 -83 188 -208c0 -127 -79 -209 -188 -209zM218 398
c47 0 67 50 67 122c0 71 -20 123 -67 123s-66 -51 -66 -123s19 -122 66 -122zM713 69c47 0 66 50 66 122s-22 124 -66 124c-47 0 -67 -52 -67 -124s20 -122 67 -122z" />
    <glyph glyph-name="ampersand" unicode="&#x26;" horiz-adv-x="724" 
d="M295 -14c-166 0 -266 85 -266 217c0 116 75 173 167 218c-36 43 -61 91 -61 151c0 104 81 177 205 177c115 0 200 -64 200 -173c0 -93 -63 -145 -138 -182l29 -36c18 -23 51 -68 70 -95c15 35 23 69 28 108h137c-7 -77 -33 -147 -77 -211l127 -160h-192l-15 18l-24 34
c-53 -39 -118 -66 -190 -66zM297 113c42 0 79 11 112 34l-143 184c-53 -35 -75 -77 -75 -125c0 -56 46 -93 106 -93zM280 576c0 -39 22 -68 57 -100c48 28 64 60 64 99c0 37 -25 64 -60 64c-37 0 -61 -24 -61 -63z" />
    <glyph glyph-name="quotesingle" unicode="'" horiz-adv-x="241" 
d="M52 458v286h137v-286h-137z" />
    <glyph glyph-name="parenleft" unicode="(" horiz-adv-x="366" 
d="M352 -141h-129c-88 107 -162 266 -162 454c0 196 74 367 162 471h130c-76 -121 -131 -272 -131 -471c0 -189 58 -334 130 -454z" />
    <glyph glyph-name="parenright" unicode=")" horiz-adv-x="366" 
d="M144 -141h-130c72 120 131 264 131 454c0 199 -55 350 -132 471h131c88 -104 162 -275 162 -471c0 -188 -74 -347 -162 -454z" />
    <glyph glyph-name="asterisk" unicode="*" horiz-adv-x="474" 
d="M160 371l-73 53l77 105l-123 40l34 82l115 -40v133h94v-133l116 40l31 -82l-121 -40l78 -105l-73 -53l-77 110z" />
    <glyph glyph-name="plus" unicode="+" horiz-adv-x="606" 
d="M53 279v126h183v193h134v-193h183v-126h-183v-195h-134v195h-183z" />
    <glyph glyph-name="comma" unicode="," horiz-adv-x="254" 
d="M45 -181v70c47 12 77 49 77 109v2h-78v164h166v-154c0 -127 -73 -183 -165 -191z" />
    <glyph glyph-name="hyphen" unicode="-" horiz-adv-x="363" 
d="M40 197v136h283v-136h-283z" />
    <glyph glyph-name="period" unicode="." horiz-adv-x="254" 
d="M44 0v164h166v-164h-166z" />
    <glyph glyph-name="slash" unicode="/" horiz-adv-x="466" 
d="M-19 -141l334 925h143l-334 -925h-143z" />
    <glyph glyph-name="zero" unicode="0" horiz-adv-x="692" 
d="M345 -17c-183 0 -309 144 -309 372s126 372 310 372c188 0 310 -144 310 -372s-123 -372 -311 -372zM346 112c101 0 142 97 142 243s-41 245 -142 245c-100 0 -142 -99 -142 -245c0 -145 42 -243 142 -243z" />
    <glyph glyph-name="one" unicode="1" horiz-adv-x="437" 
d="M197 0v465h-165v109c104 3 182 46 199 145h129v-719h-163z" />
    <glyph glyph-name="two" unicode="2" horiz-adv-x="610" 
d="M575 0h-544c1 88 28 145 75 198c67 72 160 128 232 182c47 33 73 64 73 115c0 60 -35 100 -98 100c-37 0 -65 -11 -83 -33c-23 -25 -33 -61 -33 -104h-155c0 72 15 123 48 170c41 60 117 99 228 99c165 0 258 -100 258 -227c0 -83 -37 -136 -89 -180
c-74 -66 -182 -112 -238 -181v-3h326v-136z" />
    <glyph glyph-name="three" unicode="3" horiz-adv-x="635" 
d="M324 -17c-93 0 -161 22 -213 62c-57 45 -85 113 -86 189h154c5 -68 43 -125 139 -125c76 0 120 39 120 106s-47 100 -131 100h-43v114h39c73 0 118 30 118 89c0 53 -39 88 -102 88c-80 0 -118 -54 -121 -109h-152c3 128 101 230 276 230c152 0 259 -74 259 -200
c0 -75 -46 -118 -121 -143v-2c91 -25 143 -82 143 -178c0 -151 -130 -221 -279 -221z" />
    <glyph glyph-name="four" unicode="4" horiz-adv-x="654" 
d="M387 0v161h-334v145l335 414h156v-439h106v-120h-106v-161h-157zM162 277v-2l36 3c20 1 46 3 66 3h123v172c0 21 1 47 2 70l3 39h-2l-24 -36c-15 -20 -31 -44 -46 -63l-76 -95c-15 -19 -35 -40 -52 -59c-10 -11 -20 -21 -30 -32z" />
    <glyph glyph-name="five" unicode="5" horiz-adv-x="630" 
d="M313 -17c-160 0 -280 83 -291 219h161c11 -53 56 -88 124 -88c75 0 126 50 126 125c0 77 -54 123 -123 123c-51 0 -90 -20 -111 -47h-153l74 397h433v-131h-316l-32 -157h2c33 36 76 58 147 58c131 0 243 -94 243 -244c0 -155 -118 -255 -284 -255z" />
    <glyph glyph-name="six" unicode="6" horiz-adv-x="653" 
d="M344 -17c-100 0 -174 37 -225 98c-56 65 -81 158 -81 271c-1 116 23 214 83 283c51 60 121 92 222 92c148 0 236 -80 257 -184h-156c-11 33 -38 67 -98 67c-95 0 -146 -71 -154 -212h2c40 56 94 89 174 89c136 0 253 -103 253 -251c0 -149 -118 -253 -277 -253zM338 105
c72 0 128 54 128 129c0 76 -55 131 -128 131c-80 0 -134 -54 -134 -130s57 -130 134 -130z" />
    <glyph glyph-name="seven" unicode="7" horiz-adv-x="576" 
d="M297 0h-172c11 258 148 472 267 578v2c-18 -1 -37 -2 -56 -3c-33 -3 -76 -3 -116 -3h-192v138h523v-125c-129 -129 -246 -336 -254 -587z" />
    <glyph glyph-name="eight" unicode="8" horiz-adv-x="647" 
d="M325 -17c-171 0 -295 82 -295 220c0 84 49 151 141 179v3c-76 27 -111 78 -111 145c0 118 103 197 264 197c160 0 262 -74 262 -194c0 -64 -35 -117 -110 -144v-3c95 -27 142 -95 142 -179c0 -142 -123 -224 -293 -224zM323 432c71 0 109 35 109 90c0 56 -38 92 -109 92
c-69 0 -109 -36 -109 -92c0 -55 40 -90 109 -90zM325 105c77 0 128 43 128 108c0 69 -48 112 -128 112s-130 -43 -130 -112c0 -67 49 -108 130 -108z" />
    <glyph glyph-name="nine" unicode="9" horiz-adv-x="654" 
d="M320 -17c-153 0 -249 83 -265 187h156c9 -33 42 -69 105 -69c49 0 85 19 109 58c21 33 33 82 37 149h-2c-41 -52 -94 -84 -170 -84c-142 0 -257 100 -257 251c0 149 118 252 282 252c83 0 151 -25 200 -69c67 -60 100 -159 100 -298c0 -123 -23 -227 -83 -292
c-49 -56 -117 -85 -212 -85zM318 345c77 0 133 54 133 130s-56 131 -132 131c-80 0 -132 -55 -132 -130s51 -131 131 -131z" />
    <glyph glyph-name="colon" unicode=":" horiz-adv-x="261" 
d="M47 321v164h166v-164h-166zM47 0v164h166v-164h-166z" />
    <glyph glyph-name="semicolon" unicode=";" horiz-adv-x="261" 
d="M47 321v164h166v-164h-166zM48 -181v70c47 12 77 49 77 109v2h-78v164h166v-154c0 -127 -73 -183 -165 -191z" />
    <glyph glyph-name="less" unicode="&#x3c;" horiz-adv-x="541" 
d="M481 70l-426 180v143l426 180v-139l-170 -66c-29 -11 -64 -23 -93 -32l-51 -15v-2c17 -5 34 -9 51 -14c29 -8 65 -18 93 -29l170 -63v-143z" />
    <glyph glyph-name="equal" unicode="=" horiz-adv-x="603" 
d="M61 368v123h486v-123h-486zM61 154v123h486v-123h-486z" />
    <glyph glyph-name="greater" unicode="&#x3e;" horiz-adv-x="541" 
d="M60 573l426 -180v-143l-426 -180v138l171 67c28 11 64 23 93 32c17 5 34 10 50 15v2c-17 5 -34 9 -51 14c-29 8 -64 18 -92 29l-171 63v143z" />
    <glyph glyph-name="question" unicode="?" horiz-adv-x="580" 
d="M189 0v164h166v-164h-166zM344 259h-140c0 84 20 125 76 170c45 40 106 64 106 123c0 47 -39 75 -95 75c-68 0 -113 -46 -114 -109h-156c3 133 104 239 276 239c155 0 254 -80 254 -201c0 -76 -35 -121 -74 -152c-55 -43 -91 -60 -112 -83c-16 -19 -20 -33 -21 -62z" />
    <glyph glyph-name="at" unicode="@" horiz-adv-x="949" 
d="M418 98c-99 0 -160 75 -160 192c0 140 78 239 194 239c55 0 93 -26 112 -77h1l8 66h133l-33 -268c-7 -51 6 -72 41 -72c45 0 102 37 102 173c0 203 -130 305 -326 305c-193 0 -349 -133 -349 -361c0 -187 113 -324 324 -324c67 0 130 15 186 38l31 -77
c-67 -33 -138 -47 -218 -47c-244 0 -424 161 -424 409c0 289 217 450 449 450c229 0 422 -138 422 -394c0 -173 -93 -258 -205 -258c-77 0 -133 29 -150 90h-2c-29 -56 -75 -84 -136 -84zM461 200c57 0 91 55 91 135c0 56 -20 92 -67 92c-56 0 -87 -57 -87 -134
c0 -55 19 -93 63 -93z" />
    <glyph glyph-name="A" unicode="A" horiz-adv-x="736" 
d="M10 0l268 744h177l269 -744h-180l-47 142h-270l-46 -142h-171zM313 403l-46 -139h191l-45 139c-16 51 -28 100 -36 137c-5 22 -9 42 -12 61h-2c-5 -25 -11 -49 -16 -72c-11 -40 -22 -90 -34 -126z" />
    <glyph glyph-name="B" unicode="B" horiz-adv-x="710" 
d="M63 0v744h352c77 0 135 -17 174 -51c42 -37 63 -84 63 -142c0 -75 -40 -124 -120 -149v-4c96 -23 149 -89 149 -181c0 -72 -26 -125 -73 -162c-45 -37 -106 -55 -184 -55h-361zM232 445h159c59 0 97 27 97 83c0 55 -36 84 -95 84h-161v-167zM232 134h174c33 0 60 9 79 27
c18 17 27 39 27 68c0 65 -46 97 -109 97h-171v-192z" />
    <glyph glyph-name="C" unicode="C" horiz-adv-x="749" 
d="M397 -17c-217 0 -365 164 -365 386c0 221 144 388 365 388c83 0 153 -19 204 -58c68 -49 106 -122 115 -206h-170c-11 71 -66 122 -150 122c-127 0 -190 -105 -190 -246s74 -245 191 -245c92 0 147 59 155 136h171c-5 -75 -39 -142 -90 -193c-56 -56 -132 -84 -236 -84z
" />
    <glyph glyph-name="D" unicode="D" horiz-adv-x="748" 
d="M65 0v744h310c209 0 343 -149 343 -377c0 -220 -125 -367 -353 -367h-300zM236 144h116c129 0 192 80 192 223c0 141 -64 233 -189 233h-119v-456z" />
    <glyph glyph-name="E" unicode="E" horiz-adv-x="670" 
d="M63 0v744h558v-142h-388v-148h336v-135h-336v-173h395v-146h-565z" />
    <glyph glyph-name="F" unicode="F" horiz-adv-x="640" 
d="M63 0v744h546v-145h-376v-162h314v-139h-314v-298h-170z" />
    <glyph glyph-name="G" unicode="G" horiz-adv-x="784" 
d="M617 0l-14 100h-3c-44 -83 -122 -117 -214 -117c-107 0 -192 39 -253 104c-65 71 -99 167 -99 282c0 128 45 237 129 308c60 51 136 80 235 80c188 0 298 -101 325 -242h-170c-19 56 -65 101 -150 101c-132 0 -196 -107 -196 -247c0 -143 76 -247 198 -247
c104 0 169 71 169 146v3h-150v127h311v-398h-118z" />
    <glyph glyph-name="H" unicode="H" horiz-adv-x="747" 
d="M63 0v744h170v-287h281v287h170v-744h-170v315h-281v-315h-170z" />
    <glyph glyph-name="I" unicode="I" horiz-adv-x="298" 
d="M63 0v744h171v-744h-171z" />
    <glyph glyph-name="J" unicode="J" horiz-adv-x="579" 
d="M280 -14c-171 0 -255 91 -255 239v57h157v-53c0 -75 32 -102 88 -102c57 0 83 34 83 94v523h171v-527c0 -63 -16 -113 -47 -150c-40 -51 -106 -81 -197 -81z" />
    <glyph glyph-name="K" unicode="K" horiz-adv-x="736" 
d="M63 0v744h170v-122c0 -68 -3 -136 -6 -176l278 298h204l-287 -299l305 -445h-199l-227 337l-68 -71v-266h-170z" />
    <glyph glyph-name="L" unicode="L" 
d="M63 0v744h170v-598h343v-146h-513z" />
    <glyph glyph-name="M" unicode="M" horiz-adv-x="884" 
d="M63 0v744h229l93 -310c13 -47 27 -111 38 -167c7 -32 13 -65 18 -98h3c5 33 11 66 17 98c11 56 23 120 38 167l91 310h232v-744h-157v333c0 47 3 113 6 169c2 32 4 65 6 99h-2c-6 -31 -12 -61 -19 -91c-11 -51 -26 -112 -39 -156l-106 -354h-140l-107 354
c-13 44 -28 105 -39 156c-7 30 -13 60 -19 91h-2c2 -34 4 -67 6 -99c3 -56 6 -122 6 -169v-333h-153z" />
    <glyph glyph-name="N" unicode="N" horiz-adv-x="753" 
d="M63 0v744h174l196 -323c23 -39 47 -86 67 -126l35 -70h2c-2 25 -4 51 -5 77c-3 44 -4 98 -4 141v301h163v-744h-175l-194 319c-23 37 -48 88 -68 128c-12 23 -24 47 -35 71h-2c1 -26 3 -52 4 -78c3 -44 5 -98 5 -141v-299h-163z" />
    <glyph glyph-name="O" unicode="O" horiz-adv-x="799" 
d="M400 -18c-227 0 -368 165 -368 387c0 223 141 388 368 388c225 0 367 -165 367 -388c0 -222 -142 -387 -367 -387zM401 122c128 0 192 107 192 247c0 141 -64 250 -192 250s-195 -109 -195 -250c0 -140 67 -247 195 -247z" />
    <glyph glyph-name="P" unicode="P" horiz-adv-x="686" 
d="M63 0v744h331c87 0 153 -23 199 -69c45 -45 71 -105 71 -178c0 -141 -96 -239 -250 -239h-178v-258h-173zM236 599v-206h145c72 0 111 40 111 104c0 65 -39 102 -110 102h-146z" />
    <glyph glyph-name="Q" unicode="Q" horiz-adv-x="798" 
d="M692 -63l-102 94c-53 -31 -118 -49 -191 -49c-227 0 -367 165 -367 387c0 223 140 388 367 388c226 0 366 -165 366 -388c0 -108 -31 -199 -91 -268l92 -84zM400 119c29 0 56 5 79 15l-90 83l74 80l95 -88c23 43 34 96 34 160c0 141 -64 250 -192 250
c-129 0 -194 -109 -194 -250c0 -140 65 -250 194 -250z" />
    <glyph glyph-name="R" unicode="R" horiz-adv-x="715" 
d="M63 0v744h354c144 0 254 -77 254 -213c0 -88 -42 -150 -138 -181v-3c75 -23 106 -64 117 -144c13 -101 9 -185 32 -195v-8h-168c-20 10 -19 91 -27 172c-9 75 -45 112 -128 112h-126v-284h-170zM233 609v-199h151c76 0 117 38 117 98c0 61 -36 101 -112 101h-156z" />
    <glyph glyph-name="S" unicode="S" horiz-adv-x="690" 
d="M355 -18c-200 0 -325 92 -330 253h172c9 -81 62 -117 158 -117c67 0 128 26 128 87c0 64 -63 80 -171 104c-145 32 -263 70 -263 224s125 224 290 224c164 0 280 -75 291 -222h-167c-9 59 -54 92 -129 92c-71 0 -117 -30 -117 -77c0 -58 65 -71 181 -97
c133 -29 257 -75 257 -231c0 -154 -130 -240 -300 -240z" />
    <glyph glyph-name="T" unicode="T" horiz-adv-x="668" 
d="M27 599v145h614v-145h-222v-599h-171v599h-221z" />
    <glyph glyph-name="U" unicode="U" horiz-adv-x="724" 
d="M364 -14c-203 0 -309 97 -309 273v485h170v-489c0 -81 43 -131 139 -131c89 0 135 53 135 134v486h171v-485c0 -175 -106 -273 -306 -273z" />
    <glyph glyph-name="V" unicode="V" horiz-adv-x="690" 
d="M255 0l-246 744h177l110 -358c12 -41 24 -96 35 -140c6 -27 11 -53 16 -79h2c5 26 10 52 16 79c9 44 22 99 34 140l109 358h172l-246 -744h-179z" />
    <glyph glyph-name="W" unicode="W" horiz-adv-x="999" 
d="M211 0l-202 744h173l71 -291c13 -55 23 -123 31 -182l12 -102h2c5 35 10 71 16 106c9 60 22 132 33 184l66 285h161l66 -284c11 -52 24 -125 33 -185c5 -35 10 -71 15 -106h2c4 35 9 69 14 103c8 59 20 129 33 182l69 290h173l-204 -744h-167l-72 312
c-11 47 -20 110 -28 163c-5 31 -9 63 -13 94h-2c-4 -31 -8 -63 -13 -94c-8 -53 -17 -116 -28 -163l-73 -312h-168z" />
    <glyph glyph-name="X" unicode="X" horiz-adv-x="730" 
d="M15 0l250 389l-229 355h195l60 -101c17 -29 35 -65 50 -96c8 -17 16 -35 25 -54h2c8 19 16 37 25 54c15 31 34 67 51 96l61 101h186l-225 -354l248 -390h-202l-75 131c-17 29 -34 67 -49 98l-24 54h-2c-8 -18 -16 -36 -25 -54c-15 -31 -34 -69 -51 -98l-77 -131h-194z
" />
    <glyph glyph-name="Y" unicode="Y" horiz-adv-x="702" 
d="M266 0v278l-255 466h187l80 -156c17 -35 35 -78 50 -114l24 -63h2c8 21 16 42 25 63c15 36 34 79 51 114l81 156h180l-255 -464v-280h-170z" />
    <glyph glyph-name="Z" unicode="Z" horiz-adv-x="688" 
d="M36 0v138l275 334c23 27 53 58 78 85l45 45v3l-57 -3c-32 -1 -71 -2 -100 -2h-214v144h572v-134l-265 -324c-25 -31 -58 -66 -86 -94l-49 -49v-3l60 3c35 1 75 3 106 3h248v-146h-613z" />
    <glyph glyph-name="bracketleft" unicode="[" horiz-adv-x="427" 
d="M71 -141v925h312v-122h-162v-682h162v-121h-312z" />
    <glyph glyph-name="backslash" unicode="\" horiz-adv-x="466" 
d="M485 -141h-143l-333 925h143z" />
    <glyph glyph-name="bracketright" unicode="]" horiz-adv-x="427" 
d="M43 -141v121h162v682h-162v122h313v-925h-313z" />
    <glyph glyph-name="asciicircum" unicode="^" horiz-adv-x="503" 
d="M14 438l175 306h125l175 -306h-146l-91 163h-2l-92 -163h-144z" />
    <glyph glyph-name="underscore" unicode="_" horiz-adv-x="445" 
d="M-2 -176v99h449v-99h-449z" />
    <glyph glyph-name="grave" unicode="`" horiz-adv-x="538" 
d="M225 612l-120 161h183l53 -161h-116z" />
    <glyph glyph-name="a" unicode="a" horiz-adv-x="580" 
d="M546 0h-153c-8 12 -15 34 -18 65h-2c-35 -49 -78 -79 -161 -79c-105 0 -182 56 -182 161c0 117 93 149 209 162c95 13 134 28 134 68c0 39 -24 64 -79 64c-60 0 -89 -27 -93 -70h-145c3 92 79 176 236 176c68 0 116 -9 153 -32c56 -32 81 -87 81 -159v-273
c0 -41 7 -65 20 -74v-9zM261 89c71 0 116 43 116 102v69c-23 -15 -57 -22 -92 -30c-69 -15 -102 -31 -102 -78s35 -63 78 -63z" />
    <glyph glyph-name="b" unicode="b" horiz-adv-x="621" 
d="M367 -17c-72 0 -131 30 -162 95h-2v-78h-151v744h157v-163c0 -45 -2 -91 -5 -123h3c36 55 84 89 159 89c138 0 229 -118 229 -281c0 -176 -89 -283 -228 -283zM325 109c73 0 110 62 110 158s-36 161 -111 161c-83 0 -120 -70 -120 -162c0 -93 45 -157 121 -157z" />
    <glyph glyph-name="c" unicode="c" horiz-adv-x="577" 
d="M307 -17c-170 0 -280 122 -280 282s108 282 276 282c142 0 230 -81 249 -197h-152c-11 49 -43 80 -95 80c-80 0 -119 -65 -119 -165c0 -97 39 -163 119 -163c59 0 93 35 100 96h151c-5 -121 -101 -215 -249 -215z" />
    <glyph glyph-name="d" unicode="d" horiz-adv-x="622" 
d="M255 -17c-139 0 -228 107 -228 283c0 163 91 281 230 281c73 0 122 -33 158 -89h2c-3 33 -4 78 -4 123v163h157v-744h-151v78h-2c-31 -65 -90 -95 -162 -95zM297 109c76 0 121 64 121 157c0 94 -40 162 -120 162c-75 0 -111 -65 -111 -161s37 -158 110 -158z" />
    <glyph glyph-name="e" unicode="e" horiz-adv-x="596" 
d="M308 -16c-173 0 -281 122 -281 281c0 160 111 282 273 282c76 0 136 -25 183 -68c60 -59 87 -148 86 -253h-388c11 -80 53 -128 129 -128c49 0 80 19 97 52h152c-27 -94 -115 -166 -251 -166zM300 436c-72 0 -107 -46 -118 -119h227c-5 75 -46 119 -109 119z" />
    <glyph glyph-name="f" unicode="f" horiz-adv-x="395" 
d="M20 430v102h80v45c0 56 15 98 45 125c35 31 90 43 158 42c21 0 42 -1 65 -4v-112c-80 3 -111 -2 -111 -62v-34h111v-102h-111v-430h-157v430h-80z" />
    <glyph glyph-name="g" unicode="g" horiz-adv-x="613" 
d="M299 -185c-147 0 -240 61 -256 166h153c11 -32 40 -54 101 -54c75 0 111 38 111 103v11c0 29 1 52 3 70h-4c-31 -52 -79 -78 -144 -78c-123 0 -232 91 -232 252c0 156 93 262 224 262c72 0 122 -23 153 -83h2v68h150v-485c0 -80 -26 -135 -69 -174
c-47 -40 -113 -58 -192 -58zM298 151c80 0 115 60 115 139s-39 138 -116 138c-69 0 -112 -54 -112 -139c0 -84 42 -138 113 -138z" />
    <glyph glyph-name="h" unicode="h" 
d="M209 744v-205c0 -4 -1 -48 -1 -83h3c32 57 85 91 160 91c117 0 185 -77 185 -197v-350h-156v320c0 59 -30 97 -89 97c-61 0 -102 -49 -102 -117v-300h-157v744h157z" />
    <glyph glyph-name="i" unicode="i" horiz-adv-x="261" 
d="M51 607v137h159v-137h-159zM52 0v532h157v-532h-157z" />
    <glyph glyph-name="j" unicode="j" horiz-adv-x="261" 
d="M52 -181c-28 0 -65 3 -89 8v111h6c15 0 26 0 37 1c31 3 46 15 46 54v539h157v-545c0 -68 -15 -104 -40 -128c-29 -29 -69 -40 -117 -40zM51 607v137h159v-137h-159z" />
    <glyph glyph-name="k" unicode="k" horiz-adv-x="590" 
d="M399 0l-139 232l-53 -55v-177h-155v744h155v-232c0 -79 -2 -136 -5 -171l175 191h182l-190 -197l212 -335h-182z" />
    <glyph glyph-name="l" unicode="l" horiz-adv-x="265" 
d="M54 0v744h158v-744h-158z" />
    <glyph glyph-name="m" unicode="m" horiz-adv-x="910" 
d="M52 0v532h151v-83h3c35 64 84 98 160 98c70 0 119 -34 146 -101h2c44 72 101 101 169 101c119 0 179 -77 179 -196v-351h-156v325c0 59 -28 93 -79 93c-56 0 -91 -47 -91 -115v-303h-157v325c0 59 -26 93 -78 93c-56 0 -92 -47 -92 -115v-303h-157z" />
    <glyph glyph-name="n" unicode="n" 
d="M204 532v-81h3c33 64 89 96 164 96c117 0 185 -77 185 -197v-350h-156v320c0 59 -30 97 -89 97c-61 0 -102 -49 -102 -117v-300h-157v532h152z" />
    <glyph glyph-name="o" unicode="o" horiz-adv-x="616" 
d="M309 -17c-171 0 -282 122 -282 282s111 282 282 282c169 0 280 -122 280 -282s-111 -282 -280 -282zM308 97c79 0 122 68 122 168c0 101 -43 170 -122 170c-80 0 -122 -69 -122 -170c0 -100 42 -168 122 -168z" />
    <glyph glyph-name="p" unicode="p" horiz-adv-x="624" 
d="M52 -177v709h151v-76h3c36 61 90 91 162 91c141 0 229 -118 229 -281c0 -173 -92 -283 -234 -283c-71 0 -126 31 -157 83h-2c3 -20 5 -59 5 -116v-127h-157zM326 105c72 0 112 60 112 156s-37 161 -114 161c-80 0 -120 -71 -120 -161c0 -92 42 -156 122 -156z" />
    <glyph glyph-name="q" unicode="q" horiz-adv-x="624" 
d="M416 -177v127c0 51 1 93 4 116h-2c-32 -52 -85 -83 -156 -83c-143 0 -234 110 -234 283c0 163 91 281 231 281c71 0 125 -30 160 -90h3v75h150v-709h-156zM298 105c81 0 123 64 123 156c0 91 -40 161 -120 161c-79 0 -114 -66 -114 -161c0 -96 40 -156 111 -156z" />
    <glyph glyph-name="r" unicode="r" horiz-adv-x="410" 
d="M203 532v-95h3c35 75 81 104 148 104c16 0 27 -1 33 -4v-137h-4c-11 2 -22 3 -33 3c-85 1 -141 -52 -141 -156v-247h-157v532h151z" />
    <glyph glyph-name="s" unicode="s" horiz-adv-x="539" 
d="M273 -17c-155 0 -247 73 -255 181h148c9 -51 47 -78 108 -78c56 0 88 22 88 61c0 48 -63 55 -137 68c-95 18 -191 41 -191 166c0 109 99 166 224 166c148 0 221 -64 236 -157h-146c-10 38 -40 57 -90 57c-48 0 -79 -19 -79 -54c0 -41 58 -46 131 -59
c95 -16 203 -43 203 -176c0 -116 -101 -175 -240 -175z" />
    <glyph glyph-name="t" unicode="t" horiz-adv-x="389" 
d="M21 432v100h80v170h154v-170h104v-100h-104v-264c0 -40 22 -51 59 -51c11 0 25 1 36 2h8v-117c-17 -3 -48 -8 -91 -8c-99 0 -166 32 -166 140v298h-80z" />
    <glyph glyph-name="u" unicode="u" horiz-adv-x="599" 
d="M547 0h-149v76h-3c-39 -63 -87 -91 -160 -91c-121 0 -187 78 -187 195v352h157v-322c0 -60 29 -93 85 -93c64 0 102 47 102 114v301h155v-532z" />
    <glyph glyph-name="v" unicode="v" horiz-adv-x="549" 
d="M189 0l-184 532h162l65 -214c11 -36 21 -81 29 -120c5 -22 9 -44 13 -66h3c4 22 8 44 13 66c8 39 18 84 29 120l67 214h158l-186 -532h-169z" />
    <glyph glyph-name="w" unicode="w" horiz-adv-x="822" 
d="M171 0l-164 532h160l56 -207c8 -32 15 -73 22 -106c3 -19 6 -39 9 -59h2c4 19 8 39 11 59c7 35 14 76 23 108l54 205h133l56 -205c9 -32 17 -73 24 -108c3 -20 7 -40 11 -60h2c3 19 6 39 9 59c7 33 14 75 23 107l57 207h155l-165 -532h-148l-56 217c-8 31 -16 71 -23 104
c-3 19 -7 39 -10 59h-2c-4 -20 -8 -40 -12 -59c-7 -33 -15 -73 -23 -104l-58 -217h-146z" />
    <glyph glyph-name="x" unicode="x" horiz-adv-x="593" 
d="M17 0l187 279l-169 253h179l31 -50c13 -23 27 -50 38 -73c7 -13 13 -27 18 -40h2c5 13 11 27 18 40c11 23 24 50 36 73l29 50h166l-163 -250l187 -282h-182l-41 68c-13 23 -27 52 -38 76c-7 14 -13 28 -20 42h-2l-21 -42c-12 -24 -26 -53 -41 -76l-43 -68h-171z" />
    <glyph glyph-name="y" unicode="y" horiz-adv-x="557" 
d="M168 -178c-5 0 -102 2 -105 2v123h8c3 0 47 -1 51 -1c47 0 73 18 76 54c0 19 -9 59 -28 107l-165 425h165l68 -204c12 -36 23 -83 31 -120c5 -22 9 -44 13 -65h2l15 66c9 37 20 83 32 119l65 204h156l-190 -545c-43 -123 -93 -165 -194 -165z" />
    <glyph glyph-name="z" unicode="z" horiz-adv-x="538" 
d="M36 0v117l190 215c16 17 37 39 56 55c11 9 22 19 33 28v3c-14 -1 -28 -3 -41 -4c-23 -3 -51 -4 -74 -4h-141v122h432v-113l-183 -208c-19 -20 -43 -42 -64 -61c-12 -11 -24 -21 -37 -31v-3c15 1 29 2 44 3c25 3 56 4 80 4h174v-123h-469z" />
    <glyph glyph-name="braceleft" unicode="{" horiz-adv-x="424" 
d="M383 -141h-28c-155 0 -229 42 -229 197v132c0 51 -24 74 -96 77v117c72 3 96 26 96 77v130c0 153 74 195 229 195h28v-122h-22c-59 0 -85 -12 -85 -73v-149c0 -68 -27 -98 -84 -115v-3c57 -17 84 -46 84 -114v-153c0 -60 25 -75 85 -75h22v-121z" />
    <glyph glyph-name="bar" unicode="|" horiz-adv-x="242" 
d="M71 -141v925h100v-925h-100z" />
    <glyph glyph-name="braceright" unicode="}" horiz-adv-x="424" 
d="M43 -141v121h21c60 0 85 14 85 75v152c0 68 27 97 84 114v3c-57 19 -84 48 -84 115v150c0 61 -25 73 -85 73h-21v122h27c155 0 229 -42 229 -196v-130c0 -49 24 -74 95 -77v-116c-71 -3 -95 -26 -95 -77v-132c0 -155 -74 -197 -229 -197h-27z" />
    <glyph glyph-name="asciitilde" unicode="~" horiz-adv-x="471" 
d="M323 257c-33 0 -61 10 -85 21c-27 12 -45 22 -64 22c-22 0 -35 -15 -38 -46h-101c1 119 56 173 125 173c35 0 60 -11 83 -22s41 -22 61 -22c27 0 34 13 37 44h100c0 -105 -39 -170 -118 -170z" />
    <glyph glyph-name="Euro" unicode="&#x20ac;" horiz-adv-x="687" 
d="M27 388v65h53c32 163 146 274 305 274c166 0 259 -103 272 -247h-160c-11 72 -48 119 -116 119c-75 0 -118 -57 -135 -146h167v-65h-174c-1 -11 -1 -22 -1 -33c0 -15 0 -28 1 -40h174v-65h-165c19 -88 64 -135 139 -135s113 58 120 134h156c-8 -154 -105 -266 -276 -266
c-158 0 -271 104 -306 267h-54v65h45c-1 13 -1 25 -1 40c0 11 0 22 1 33h-45z" />
    <glyph glyph-name="quotesinglbase" unicode="&#x201a;" horiz-adv-x="228" 
d="M187 147v-132c0 -117 -72 -166 -149 -174v59c39 11 70 43 70 98v2h-67v147h146z" />
    <glyph glyph-name="florin" unicode="&#x192;" horiz-adv-x="466" 
d="M42 331v101h105l21 141c8 52 24 90 56 117c49 40 131 42 215 31v-112c-68 3 -105 2 -113 -54l-18 -123h112v-101h-127l-49 -345c-8 -51 -22 -89 -51 -114c-45 -40 -115 -37 -190 -29v104c48 -3 74 0 82 55l48 329h-91z" />
    <glyph glyph-name="quotedblbase" unicode="&#x201e;" horiz-adv-x="439" 
d="M187 147v-132c0 -117 -72 -166 -149 -174v59c39 11 70 43 70 98v2h-67v147h146zM398 147v-132c0 -117 -72 -166 -149 -174v59c39 11 70 43 70 98v2h-67v147h146z" />
    <glyph glyph-name="ellipsis" unicode="&#x2026;" horiz-adv-x="823" 
d="M44 0v164h166v-164h-166zM328 0v164h167v-164h-167zM613 0v164h166v-164h-166z" />
    <glyph glyph-name="dagger" unicode="&#x2020;" horiz-adv-x="628" 
d="M44 407v130h186v207h166v-207h187v-130h-187v-550h-166v550h-186z" />
    <glyph glyph-name="daggerdbl" unicode="&#x2021;" horiz-adv-x="628" 
d="M44 407v130h186v207h166v-207h187v-130h-187v-213h187v-131h-187v-206h-166v206h-186v131h186v213h-186z" />
    <glyph glyph-name="circumflex" unicode="&#x2c6;" horiz-adv-x="500" 
d="M65 614l108 148h153l109 -148h-135l-47 78h-2l-49 -78h-137z" />
    <glyph glyph-name="perthousand" unicode="&#x2030;" horiz-adv-x="1346" 
d="M221 0l388 712h94l-388 -712h-94zM218 312c-108 0 -187 80 -187 208c0 126 79 207 187 207c110 0 186 -80 186 -207c0 -128 -78 -208 -186 -208zM706 -18c-107 0 -186 82 -186 209c0 125 79 208 186 208c111 0 188 -83 188 -208c0 -127 -79 -209 -188 -209zM218 398
c47 0 67 50 67 122c0 71 -20 123 -67 123s-66 -51 -66 -123s19 -122 66 -122zM706 69c47 0 67 50 67 122s-20 124 -67 124c-45 0 -66 -52 -66 -124s21 -122 66 -122zM1128 -18c-109 0 -188 82 -188 209c0 125 80 208 188 208c109 0 187 -83 187 -208
c0 -127 -78 -209 -187 -209zM1128 69c47 0 67 50 67 122s-22 124 -67 124c-47 0 -66 -52 -66 -124s19 -122 66 -122z" />
    <glyph glyph-name="Scaron" unicode="&#x160;" horiz-adv-x="690" 
d="M355 -18c-200 0 -325 92 -330 253h172c9 -81 62 -117 158 -117c67 0 128 26 128 87c0 64 -63 80 -171 104c-145 32 -263 70 -263 224s125 224 290 224c164 0 280 -75 291 -222h-167c-9 59 -54 92 -129 92c-71 0 -117 -30 -117 -77c0 -58 65 -71 181 -97
c133 -29 257 -75 257 -231c0 -154 -130 -240 -300 -240zM520 916l-108 -131h-153l-109 131h136l46 -57h2l48 57h138z" />
    <glyph glyph-name="guilsinglleft" unicode="&#x2039;" horiz-adv-x="301" 
d="M242 25l-183 164v151l183 163v-142l-104 -97v-2l104 -95v-142z" />
    <glyph glyph-name="OE" unicode="&#x152;" horiz-adv-x="1137" 
d="M386 -18c-210 0 -354 165 -354 387c0 223 144 388 354 388c84 0 143 -33 186 -89v76h512v-143h-361v-149h308v-134h-308v-168h372v-150h-523v68c-43 -55 -102 -86 -186 -86zM395 122c108 0 166 85 166 222v49c0 139 -58 226 -166 226c-124 0 -189 -109 -189 -250
c0 -140 65 -247 189 -247z" />
    <glyph glyph-name="quoteleft" unicode="&#x2018;" horiz-adv-x="228" 
d="M41 441v132c0 117 72 166 149 174v-60c-39 -11 -70 -44 -70 -97v-2h67v-147h-146z" />
    <glyph glyph-name="quoteright" unicode="&#x2019;" horiz-adv-x="228" 
d="M187 744v-132c0 -117 -72 -166 -149 -174v59c39 11 70 43 70 98v2h-67v147h146z" />
    <glyph glyph-name="quotedblleft" unicode="&#x201c;" horiz-adv-x="439" 
d="M252 441v132c0 117 72 166 148 174v-60c-39 -11 -69 -44 -69 -97v-2h67v-147h-146zM41 441v132c0 117 72 166 149 174v-60c-39 -11 -70 -44 -70 -97v-2h67v-147h-146z" />
    <glyph glyph-name="quotedblright" unicode="&#x201d;" horiz-adv-x="439" 
d="M187 744v-132c0 -117 -72 -166 -149 -174v59c39 11 70 43 70 98v2h-67v147h146zM398 744v-132c0 -117 -72 -166 -149 -174v59c39 11 70 43 70 98v2h-67v147h146z" />
    <glyph glyph-name="bullet" unicode="&#x2022;" horiz-adv-x="396" 
d="M198 183c-83 0 -151 67 -151 150s68 152 151 152s151 -69 151 -152s-68 -150 -151 -150z" />
    <glyph glyph-name="endash" unicode="&#x2013;" horiz-adv-x="500" 
d="M0 197v135h500v-135h-500z" />
    <glyph glyph-name="emdash" unicode="&#x2014;" horiz-adv-x="1000" 
d="M200 197v135h600v-135h-600z" />
    <glyph glyph-name="tilde" unicode="&#x2dc;" horiz-adv-x="500" 
d="M326 613c-61 0 -101 41 -131 41c-17 0 -32 -14 -35 -42h-84c0 93 49 141 108 141c64 0 96 -41 129 -41c20 0 31 13 34 39h84c0 -84 -38 -138 -105 -138z" />
    <glyph glyph-name="trademark" unicode="&#x2122;" horiz-adv-x="965" 
d="M450 362v382h151l35 -117c8 -27 15 -63 22 -91c3 -17 7 -34 11 -50h2c3 16 7 33 10 50c7 28 15 64 23 91l35 117h153v-382h-100v113c0 31 0 72 1 105c1 19 1 38 2 57h-3c-4 -19 -8 -37 -13 -54c-8 -31 -17 -67 -28 -98l-38 -123h-88l-38 123c-11 31 -19 68 -27 99
c-5 17 -9 35 -13 53h-2c0 -19 0 -38 1 -57c1 -33 2 -74 2 -105v-113h-98zM51 652v92h334v-92h-111v-290h-112v290h-111z" />
    <glyph glyph-name="scaron" unicode="&#x161;" horiz-adv-x="539" 
d="M273 -17c-155 0 -247 73 -255 181h148c9 -51 47 -78 108 -78c56 0 88 22 88 61c0 48 -63 55 -137 68c-95 18 -191 41 -191 166c0 109 99 166 224 166c148 0 221 -64 236 -157h-146c-10 38 -40 57 -90 57c-48 0 -79 -19 -79 -54c0 -41 58 -46 131 -59
c95 -16 203 -43 203 -176c0 -116 -101 -175 -240 -175zM449 760l-108 -148h-153l-109 148h135l47 -78h2l49 78h137z" />
    <glyph glyph-name="guilsinglright" unicode="&#x203a;" horiz-adv-x="301" 
d="M59 503l183 -164v-150l-183 -164v143l105 96v2l-105 96v141z" />
    <glyph glyph-name="oe" unicode="&#x153;" horiz-adv-x="978" 
d="M695 -16c-88 0 -152 35 -195 92c-43 -59 -107 -93 -198 -93c-169 0 -275 122 -275 282s106 282 275 282c91 0 156 -36 197 -93c43 59 105 93 188 93c76 0 133 -24 178 -67c61 -59 88 -149 87 -254h-381c11 -80 54 -128 125 -128c49 0 76 19 93 52h153
c-30 -94 -112 -166 -247 -166zM304 97c77 0 118 68 118 168c0 101 -41 170 -118 170c-80 0 -118 -69 -118 -170c0 -100 38 -168 118 -168zM687 436c-72 0 -104 -46 -115 -119h219c-5 75 -43 119 -104 119z" />
    <glyph glyph-name="Ydieresis" unicode="&#x178;" horiz-adv-x="702" 
d="M266 0v278l-255 466h187l80 -156c17 -35 35 -78 50 -114l24 -63h2c8 21 16 42 25 63c15 36 34 79 51 114l81 156h180l-255 -464v-280h-170zM153 785v134h153v-134h-153zM398 785v134h152v-134h-152z" />
    <glyph glyph-name="uni00A0" unicode="&#xa0;" horiz-adv-x="237" 
 />
    <glyph glyph-name="exclamdown" unicode="&#xa1;" horiz-adv-x="289" 
d="M185 353l41 -299v-186h-163v186l41 299h81zM228 612v-164h-167v164h167z" />
    <glyph glyph-name="cent" unicode="&#xa2;" horiz-adv-x="580" 
d="M273 -129v114c-152 16 -246 132 -246 280c0 149 94 268 246 281v89h63v-89c127 -11 204 -91 220 -200h-149c-8 41 -34 70 -71 81v-323c43 11 68 43 75 96h148c-5 -116 -90 -205 -223 -216v-113h-63zM184 265c0 -84 29 -144 89 -160v321c-60 -16 -89 -74 -89 -161z" />
    <glyph glyph-name="sterling" unicode="&#xa3;" horiz-adv-x="627" 
d="M39 302v92h46c-17 32 -31 66 -31 113c0 124 95 220 271 220c77 0 141 -18 189 -57c52 -43 80 -101 83 -194h-158c0 87 -45 124 -112 124c-68 0 -102 -38 -102 -97c0 -41 16 -74 31 -109h144v-92h-118c0 -8 1 -15 1 -23c0 -53 -24 -98 -92 -147l2 -3c39 20 67 28 102 28
c71 0 87 -27 143 -27c40 0 74 21 97 44l69 -126c-41 -36 -100 -63 -164 -63c-102 0 -136 51 -218 51c-43 0 -76 -21 -109 -45l-80 119c60 39 101 86 101 146c0 16 -3 31 -7 46h-88z" />
    <glyph glyph-name="currency" unicode="&#xa4;" horiz-adv-x="539" 
d="M98 91l-79 78l68 68c-19 33 -29 70 -29 113c0 42 10 79 29 112l-68 70l79 77l69 -71c30 17 64 25 102 25s72 -8 102 -25l70 71l79 -77l-70 -70c20 -32 29 -69 29 -112c0 -41 -9 -79 -28 -112l69 -69l-79 -78l-70 71c-29 -16 -63 -24 -102 -24s-72 8 -101 24zM269 232
c60 0 94 46 94 118s-34 120 -94 120s-96 -48 -96 -120s36 -118 96 -118z" />
    <glyph glyph-name="yen" unicode="&#xa5;" horiz-adv-x="677" 
d="M82 268v64h149l-219 381h180l72 -137c17 -33 35 -77 50 -112l24 -63h2c8 21 16 42 25 63c15 35 33 79 50 112l71 137h177l-220 -381h150v-64h-177v-72h177v-65h-177v-131h-157v131h-177v65h177v72h-177z" />
    <glyph glyph-name="brokenbar" unicode="&#xa6;" horiz-adv-x="242" 
d="M71 395v389h100v-389h-100zM71 -141v404h100v-404h-100z" />
    <glyph glyph-name="section" unicode="&#xa7;" horiz-adv-x="661" 
d="M344 -189c-155 0 -250 88 -253 203h145c1 -44 37 -82 102 -82c52 0 82 28 82 63c0 50 -59 61 -176 112c-128 53 -205 101 -205 206c0 73 50 124 130 143c-35 29 -58 57 -58 114c0 101 92 171 223 171c139 0 226 -71 233 -188h-138c-4 40 -30 70 -89 70
c-53 0 -77 -22 -77 -55c0 -42 50 -58 154 -101c108 -45 209 -94 209 -200c0 -85 -49 -125 -125 -144c41 -29 72 -67 72 -128c0 -118 -94 -184 -229 -184zM342 347c-36 15 -72 30 -99 43c-39 -8 -61 -27 -61 -58c0 -38 32 -55 136 -103l97 -45c37 9 63 28 63 59
c0 41 -43 63 -136 104z" />
    <glyph glyph-name="dieresis" unicode="&#xa8;" horiz-adv-x="500" 
d="M297 607v137h148v-137h-148zM54 607v137h149v-137h-149z" />
    <glyph glyph-name="copyright" unicode="&#xa9;" horiz-adv-x="867" 
d="M434 -18c-214 0 -383 165 -383 387c0 223 169 388 383 388s382 -165 382 -388c0 -222 -168 -387 -382 -387zM434 32c184 0 322 144 322 337c0 194 -138 337 -322 337c-185 0 -324 -143 -324 -337c0 -193 139 -337 324 -337zM439 146c-131 0 -217 95 -217 226
c0 132 86 228 217 228c47 0 88 -13 119 -34c43 -29 67 -74 72 -126h-114c-7 35 -33 62 -78 62c-65 0 -96 -55 -96 -130c0 -76 37 -128 98 -128c48 0 76 31 81 70h113c-3 -47 -21 -89 -53 -118c-35 -32 -78 -50 -142 -50z" />
    <glyph glyph-name="ordfeminine" unicode="&#xaa;" horiz-adv-x="543" 
d="M498 245h-139c-7 11 -14 32 -17 59h-1c-27 -40 -69 -70 -141 -70c-92 0 -163 51 -163 141c0 105 81 135 187 148c88 11 118 20 118 55c0 32 -20 55 -69 55c-55 0 -75 -26 -82 -61h-133c5 79 73 155 213 155c60 0 102 -9 137 -28c49 -28 73 -75 73 -140v-241
c0 -36 6 -58 17 -65v-8zM243 326c61 0 101 37 101 88v59c-19 -11 -49 -19 -81 -26c-64 -12 -87 -27 -87 -66c0 -40 30 -55 67 -55z" />
    <glyph glyph-name="guillemotleft" unicode="&#xab;" horiz-adv-x="511" 
d="M452 40l-168 152v146l168 152v-135l-96 -91v-2l96 -91v-131zM226 40l-167 152v146l167 152v-135l-96 -91v-2l96 -91v-131z" />
    <glyph glyph-name="logicalnot" unicode="&#xac;" horiz-adv-x="544" 
d="M53 316v129h427v-287h-137v158h-290z" />
    <glyph glyph-name="uni00AD" unicode="&#xad;" horiz-adv-x="363" 
d="M40 197v136h283v-136h-283z" />
    <glyph glyph-name="registered" unicode="&#xae;" horiz-adv-x="658" 
d="M330 172c-163 0 -290 124 -290 292c0 169 127 293 290 293c160 0 288 -124 288 -293c0 -168 -128 -292 -288 -292zM330 215c136 0 238 106 238 249c0 144 -102 249 -238 249c-138 0 -239 -105 -239 -249c0 -143 101 -249 239 -249zM211 319v296h145c60 0 108 -29 108 -85
c0 -35 -14 -59 -57 -72v-2c35 -9 44 -21 49 -54c5 -28 3 -73 15 -75v-8h-79c-9 5 -9 40 -13 69c-3 26 -18 39 -45 39h-43v-108h-80zM291 554v-68h51c28 0 42 11 42 34s-14 34 -41 34h-52z" />
    <glyph glyph-name="macron" unicode="&#xaf;" horiz-adv-x="500" 
d="M96 615v111h312v-111h-312z" />
    <glyph glyph-name="degree" unicode="&#xb0;" horiz-adv-x="438" 
d="M220 392c-96 0 -176 74 -176 166c0 95 80 169 176 169c93 0 174 -74 174 -169c0 -92 -81 -166 -174 -166zM220 473c49 0 80 38 80 85s-31 88 -80 88c-51 0 -82 -41 -82 -88s31 -85 82 -85z" />
    <glyph glyph-name="plusminus" unicode="&#xb1;" horiz-adv-x="606" 
d="M53 350v124h183v164h134v-164h183v-124h-183v-166h-134v166h-183zM53 0v120h500v-120h-500z" />
    <glyph glyph-name="twosuperior" unicode="&#xb2;" horiz-adv-x="436" 
d="M405 288h-377c1 89 46 140 106 183c80 56 146 77 146 130c0 33 -18 56 -57 56c-43 0 -69 -31 -69 -78h-120c0 112 77 174 192 174c113 0 178 -66 178 -144c0 -66 -31 -96 -72 -129c-46 -38 -111 -61 -140 -93h213v-99z" />
    <glyph glyph-name="threesuperior" unicode="&#xb3;" horiz-adv-x="444" 
d="M227 276c-134 0 -205 72 -205 159h121c3 -33 23 -65 76 -65c44 0 68 21 68 57c0 41 -28 55 -77 55h-26v84h22c45 0 72 16 72 49c0 31 -23 50 -58 50c-45 0 -62 -29 -65 -57h-120c5 80 73 146 190 146c103 0 175 -48 175 -131c0 -45 -29 -71 -80 -90v-1
c60 -17 95 -51 95 -112c0 -99 -85 -144 -188 -144z" />
    <glyph glyph-name="acute" unicode="&#xb4;" horiz-adv-x="500" 
d="M177 612l53 161h183l-119 -161h-117z" />
    <glyph glyph-name="mu" unicode="&#xb5;" horiz-adv-x="603" 
d="M52 -177v709h157v-322c0 -60 29 -93 85 -93c64 0 102 47 102 114v301h155v-532h-149v76h-3c-27 -48 -73 -84 -145 -84c-23 0 -39 7 -47 15h-2c1 -10 1 -21 2 -32c1 -19 2 -45 2 -68v-84h-157z" />
    <glyph glyph-name="paragraph" unicode="&#xb6;" 
d="M279 351h-43c-123 0 -200 78 -200 194c0 60 22 110 59 146c37 35 90 53 157 53h290v-884h-92v788h-79v-788h-92v491z" />
    <glyph glyph-name="periodcentered" unicode="&#xb7;" horiz-adv-x="257" 
d="M45 247v165h167v-165h-167z" />
    <glyph glyph-name="cedilla" unicode="&#xb8;" horiz-adv-x="500" 
d="M227 -210c-47 0 -86 13 -113 30l20 39c20 -9 44 -16 69 -16c27 0 49 9 49 33c0 20 -15 29 -35 29c-13 0 -22 -3 -33 -7l-18 26l71 76h67l-62 -55v-2c59 8 113 -14 113 -71c0 -51 -52 -82 -128 -82z" />
    <glyph glyph-name="onesuperior" unicode="&#xb9;" horiz-adv-x="342" 
d="M144 288v276h-115v87c80 3 129 34 142 98h102v-461h-129z" />
    <glyph glyph-name="ordmasculine" unicode="&#xba;" horiz-adv-x="557" 
d="M279 232c-149 0 -249 107 -249 247c0 141 100 248 249 248c151 0 248 -107 248 -248c0 -140 -97 -247 -248 -247zM278 333c68 0 103 59 103 146s-35 147 -103 147s-102 -60 -102 -147s34 -146 102 -146z" />
    <glyph glyph-name="guillemotright" unicode="&#xbb;" horiz-adv-x="511" 
d="M59 490l167 -153v-146l-167 -151v134l96 91v2l-96 91v132zM284 490l168 -153v-146l-168 -151v134l97 91v2l-97 91v132z" />
    <glyph glyph-name="onequarter" unicode="&#xbc;" horiz-adv-x="908" 
d="M691 -110v96h-219v103l219 262h128v-276h67v-89h-67v-96h-128zM77 -130l627 874h104l-628 -874h-103zM147 288v276h-115v87c80 3 129 34 142 98h102v-461h-129zM551 70v-2c9 1 19 2 28 3c16 3 35 4 50 4h62v96c0 13 0 29 3 44c1 8 3 16 4 25h-2l-14 -21
c-9 -13 -18 -26 -27 -37l-46 -57c-12 -13 -24 -25 -37 -37c-7 -7 -14 -13 -21 -18z" />
    <glyph glyph-name="onehalf" unicode="&#xbd;" horiz-adv-x="944" 
d="M147 288v276h-115v87c80 3 129 34 142 98h102v-461h-129zM68 -130l627 874h104l-628 -874h-103zM910 -110h-377c1 89 46 140 106 183c80 56 146 77 146 130c0 33 -18 56 -57 56c-43 0 -69 -31 -69 -78h-120c0 112 77 174 192 174c113 0 178 -66 178 -144
c0 -66 -31 -96 -72 -129c-46 -38 -111 -61 -140 -93h213v-99z" />
    <glyph glyph-name="threequarters" unicode="&#xbe;" horiz-adv-x="996" 
d="M779 -110v96h-219v103l219 262h128v-276h67v-89h-67v-96h-128zM230 276c-134 0 -205 72 -205 159h121c3 -33 23 -65 76 -65c44 0 68 21 68 57c0 41 -28 55 -77 55h-26v84h22c45 0 72 16 72 49c0 31 -23 50 -58 50c-45 0 -62 -29 -65 -57h-120c5 80 73 146 190 146
c103 0 175 -48 175 -131c0 -45 -29 -71 -80 -90v-1c60 -17 95 -51 95 -112c0 -99 -85 -144 -188 -144zM156 -130l627 874h104l-628 -874h-103zM639 70v-2c9 1 19 2 28 3c16 3 35 4 50 4h62v96c0 13 0 29 3 44c1 8 3 16 4 25h-2l-14 -21c-9 -13 -18 -26 -27 -37l-46 -57
c-12 -13 -24 -25 -37 -37c-7 -7 -14 -13 -21 -18z" />
    <glyph glyph-name="questiondown" unicode="&#xbf;" horiz-adv-x="580" 
d="M391 612v-164h-166v164h166zM236 353h140c0 -85 -20 -125 -76 -170c-45 -40 -106 -64 -106 -123c0 -47 40 -75 96 -75c68 0 111 46 114 109h155c-5 -134 -103 -239 -275 -239c-156 0 -255 80 -255 201c0 75 36 121 75 152c55 43 90 60 111 83c16 19 21 33 21 62z" />
    <glyph glyph-name="Agrave" unicode="&#xc0;" horiz-adv-x="736" 
d="M10 0l268 744h177l269 -744h-180l-47 142h-270l-46 -142h-171zM313 403l-46 -139h191l-45 139c-16 51 -28 100 -36 137c-5 22 -9 42 -12 61h-2c-5 -25 -11 -49 -16 -72c-11 -40 -22 -90 -34 -126zM303 785l-110 131h189l43 -131h-122z" />
    <glyph glyph-name="Aacute" unicode="&#xc1;" horiz-adv-x="736" 
d="M10 0l268 744h177l269 -744h-180l-47 142h-270l-46 -142h-171zM313 403l-46 -139h191l-45 139c-16 51 -28 100 -36 137c-5 22 -9 42 -12 61h-2c-5 -25 -11 -49 -16 -72c-11 -40 -22 -90 -34 -126zM298 785l43 131h189l-109 -131h-123z" />
    <glyph glyph-name="Acircumflex" unicode="&#xc2;" horiz-adv-x="736" 
d="M10 0l268 744h177l269 -744h-180l-47 142h-270l-46 -142h-171zM179 785l108 131h153l109 -131h-136l-46 57h-2l-48 -57h-138zM313 403l-46 -139h191l-45 139c-16 51 -28 100 -36 137c-5 22 -9 42 -12 61h-2c-5 -25 -11 -49 -16 -72c-11 -40 -22 -90 -34 -126z" />
    <glyph glyph-name="Atilde" unicode="&#xc3;" horiz-adv-x="736" 
d="M10 0l268 744h177l269 -744h-180l-47 142h-270l-46 -142h-171zM440 786c-61 0 -99 40 -130 40c-17 0 -31 -13 -34 -41h-86c0 93 49 141 108 141c63 0 95 -40 127 -40c20 0 31 13 34 38h86c0 -84 -38 -138 -105 -138zM313 403l-46 -139h191l-45 139
c-16 51 -28 100 -36 137c-5 22 -9 42 -12 61h-2c-5 -25 -11 -49 -16 -72c-11 -40 -22 -90 -34 -126z" />
    <glyph glyph-name="Adieresis" unicode="&#xc4;" horiz-adv-x="736" 
d="M10 0l268 744h177l269 -744h-180l-47 142h-270l-46 -142h-171zM313 403l-46 -139h191l-45 139c-16 51 -28 100 -36 137c-5 22 -9 42 -12 61h-2c-5 -25 -11 -49 -16 -72c-11 -40 -22 -90 -34 -126zM169 785v134h153v-134h-153zM414 785v134h152v-134h-152z" />
    <glyph glyph-name="Aring" unicode="&#xc5;" horiz-adv-x="736" 
d="M10 0l268 744h177l269 -744h-180l-47 142h-270l-46 -142h-171zM368 776c-63 0 -115 47 -115 110c0 60 52 111 115 111c62 0 114 -51 114 -111c0 -63 -52 -110 -114 -110zM313 403l-46 -139h191l-45 139c-16 51 -28 100 -36 137c-5 22 -9 42 -12 61h-2
c-5 -25 -11 -49 -16 -72c-11 -40 -22 -90 -34 -126zM368 833c31 0 52 22 52 53s-21 55 -52 55c-32 0 -53 -24 -53 -55s21 -53 53 -53z" />
    <glyph glyph-name="AE" unicode="&#xc6;" horiz-adv-x="1045" 
d="M993 744v-143h-363v-149h311v-134h-311v-168h375v-150h-547v145h-231l-48 -145h-169l255 744h728zM377 601l-110 -335h191v335h-81z" />
    <glyph glyph-name="Ccedilla" unicode="&#xc7;" horiz-adv-x="749" 
d="M359 -210c-47 0 -86 13 -113 30l20 39c20 -9 44 -16 69 -16c27 0 49 9 49 33c0 20 -15 29 -35 29c-13 0 -22 -3 -33 -7l-18 26l57 61c-195 19 -323 177 -323 384c0 221 144 388 365 388c83 0 153 -19 204 -58c68 -49 106 -122 115 -206h-170c-11 71 -66 122 -150 122
c-127 0 -190 -105 -190 -246s74 -245 191 -245c92 0 147 59 155 136h171c-5 -75 -39 -142 -90 -193c-53 -52 -121 -80 -216 -83l-43 -39v-2c59 8 113 -14 113 -71c0 -51 -52 -82 -128 -82z" />
    <glyph glyph-name="Egrave" unicode="&#xc8;" horiz-adv-x="670" 
d="M63 0v744h558v-142h-388v-148h336v-135h-336v-173h395v-146h-565zM288 785l-110 131h189l43 -131h-122z" />
    <glyph glyph-name="Eacute" unicode="&#xc9;" horiz-adv-x="670" 
d="M63 0v744h558v-142h-388v-148h336v-135h-336v-173h395v-146h-565zM283 785l43 131h189l-109 -131h-123z" />
    <glyph glyph-name="Ecircumflex" unicode="&#xca;" horiz-adv-x="670" 
d="M63 0v744h558v-142h-388v-148h336v-135h-336v-173h395v-146h-565zM164 785l108 131h153l109 -131h-136l-46 57h-2l-48 -57h-138z" />
    <glyph glyph-name="Edieresis" unicode="&#xcb;" horiz-adv-x="670" 
d="M63 0v744h558v-142h-388v-148h336v-135h-336v-173h395v-146h-565zM154 785v134h153v-134h-153zM399 785v134h152v-134h-152z" />
    <glyph glyph-name="Igrave" unicode="&#xcc;" horiz-adv-x="298" 
d="M63 0v744h171v-744h-171zM84 785l-110 131h189l43 -131h-122z" />
    <glyph glyph-name="Iacute" unicode="&#xcd;" horiz-adv-x="298" 
d="M63 0v744h171v-744h-171zM79 785l43 131h189l-109 -131h-123z" />
    <glyph glyph-name="Icircumflex" unicode="&#xce;" horiz-adv-x="298" 
d="M63 0v744h171v-744h-171zM-40 785l108 131h153l109 -131h-136l-46 57h-2l-48 -57h-138z" />
    <glyph glyph-name="Idieresis" unicode="&#xcf;" horiz-adv-x="298" 
d="M63 0v744h171v-744h-171zM185 785v134h142v-134h-142zM-30 785v134h143v-134h-143z" />
    <glyph glyph-name="Eth" unicode="&#xd0;" horiz-adv-x="752" 
d="M9 311v133h60v300h310c209 0 343 -149 343 -377c0 -220 -125 -367 -353 -367h-300v311h-60zM238 144h118c129 0 192 80 192 223c0 141 -64 233 -189 233h-121v-156h171v-133h-171v-167z" />
    <glyph glyph-name="Ntilde" unicode="&#xd1;" horiz-adv-x="753" 
d="M63 0v744h174l196 -323c23 -39 47 -86 67 -126l35 -70h2c-2 25 -4 51 -5 77c-3 44 -4 98 -4 141v301h163v-744h-175l-194 319c-23 37 -48 88 -68 128c-12 23 -24 47 -35 71h-2c1 -26 3 -52 4 -78c3 -44 5 -98 5 -141v-299h-163zM457 786c-61 0 -99 40 -130 40
c-17 0 -31 -13 -34 -41h-86c0 93 49 141 108 141c63 0 95 -40 127 -40c20 0 31 13 34 38h86c0 -84 -38 -138 -105 -138z" />
    <glyph glyph-name="Ograve" unicode="&#xd2;" horiz-adv-x="799" 
d="M400 -18c-227 0 -368 165 -368 387c0 223 141 388 368 388c225 0 367 -165 367 -388c0 -222 -142 -387 -367 -387zM401 122c128 0 192 107 192 247c0 141 -64 250 -192 250s-195 -109 -195 -250c0 -140 67 -247 195 -247zM335 785l-110 131h189l43 -131h-122z" />
    <glyph glyph-name="Oacute" unicode="&#xd3;" horiz-adv-x="799" 
d="M400 -18c-227 0 -368 165 -368 387c0 223 141 388 368 388c225 0 367 -165 367 -388c0 -222 -142 -387 -367 -387zM401 122c128 0 192 107 192 247c0 141 -64 250 -192 250s-195 -109 -195 -250c0 -140 67 -247 195 -247zM330 785l43 131h189l-109 -131h-123z" />
    <glyph glyph-name="Ocircumflex" unicode="&#xd4;" horiz-adv-x="799" 
d="M400 -18c-227 0 -368 165 -368 387c0 223 141 388 368 388c225 0 367 -165 367 -388c0 -222 -142 -387 -367 -387zM401 122c128 0 192 107 192 247c0 141 -64 250 -192 250s-195 -109 -195 -250c0 -140 67 -247 195 -247zM211 785l108 131h153l109 -131h-136l-46 57h-2
l-48 -57h-138z" />
    <glyph glyph-name="Otilde" unicode="&#xd5;" horiz-adv-x="799" 
d="M400 -18c-227 0 -368 165 -368 387c0 223 141 388 368 388c225 0 367 -165 367 -388c0 -222 -142 -387 -367 -387zM401 122c128 0 192 107 192 247c0 141 -64 250 -192 250s-195 -109 -195 -250c0 -140 67 -247 195 -247zM472 786c-61 0 -99 40 -130 40
c-17 0 -31 -13 -34 -41h-86c0 93 49 141 108 141c63 0 95 -40 127 -40c20 0 31 13 34 38h86c0 -84 -38 -138 -105 -138z" />
    <glyph glyph-name="Odieresis" unicode="&#xd6;" horiz-adv-x="799" 
d="M400 -18c-227 0 -368 165 -368 387c0 223 141 388 368 388c225 0 367 -165 367 -388c0 -222 -142 -387 -367 -387zM401 122c128 0 192 107 192 247c0 141 -64 250 -192 250s-195 -109 -195 -250c0 -140 67 -247 195 -247zM446 785v134h152v-134h-152zM201 785v134h153
v-134h-153z" />
    <glyph glyph-name="multiply" unicode="&#xd7;" horiz-adv-x="605" 
d="M142 91l-87 87l160 161l-159 160l87 88l159 -160l160 160l88 -88l-160 -160l160 -160l-88 -88l-160 160z" />
    <glyph glyph-name="Oslash" unicode="&#xd8;" horiz-adv-x="799" 
d="M84 -45l-60 52l92 103c-55 68 -84 156 -84 259c0 223 141 388 368 388c91 0 168 -27 228 -74l86 97l60 -51l-90 -102c53 -68 83 -157 83 -258c0 -222 -142 -387 -367 -387c-92 0 -167 25 -227 72zM206 369c0 -51 7 -96 22 -133l300 335c-31 31 -72 48 -127 48
c-128 0 -195 -109 -195 -250zM401 122c128 0 193 107 193 247c0 49 -7 94 -22 133l-298 -335c32 -30 74 -45 127 -45z" />
    <glyph glyph-name="Ugrave" unicode="&#xd9;" horiz-adv-x="724" 
d="M364 -14c-203 0 -309 97 -309 273v485h170v-489c0 -81 43 -131 139 -131c89 0 135 53 135 134v486h171v-485c0 -175 -106 -273 -306 -273zM305 785l-110 131h189l43 -131h-122z" />
    <glyph glyph-name="Uacute" unicode="&#xda;" horiz-adv-x="724" 
d="M364 -14c-203 0 -309 97 -309 273v485h170v-489c0 -81 43 -131 139 -131c89 0 135 53 135 134v486h171v-485c0 -175 -106 -273 -306 -273zM299 785l43 131h189l-109 -131h-123z" />
    <glyph glyph-name="Ucircumflex" unicode="&#xdb;" horiz-adv-x="724" 
d="M364 -14c-203 0 -309 97 -309 273v485h170v-489c0 -81 43 -131 139 -131c89 0 135 53 135 134v486h171v-485c0 -175 -106 -273 -306 -273zM174 785l108 131h153l109 -131h-136l-46 57h-2l-48 -57h-138z" />
    <glyph glyph-name="Udieresis" unicode="&#xdc;" horiz-adv-x="724" 
d="M364 -14c-203 0 -309 97 -309 273v485h170v-489c0 -81 43 -131 139 -131c89 0 135 53 135 134v486h171v-485c0 -175 -106 -273 -306 -273zM409 785v134h152v-134h-152zM164 785v134h153v-134h-153z" />
    <glyph glyph-name="Yacute" unicode="&#xdd;" horiz-adv-x="702" 
d="M266 0v278l-255 466h187l80 -156c17 -35 35 -78 50 -114l24 -63h2c8 21 16 42 25 63c15 36 34 79 51 114l81 156h180l-255 -464v-280h-170zM282 785l43 131h189l-109 -131h-123z" />
    <glyph glyph-name="Thorn" unicode="&#xde;" horiz-adv-x="686" 
d="M63 0v744h173v-107h158c88 0 154 -26 199 -71c45 -44 71 -102 71 -177c0 -141 -96 -239 -250 -239h-178v-150h-173zM382 492h-146v-207h145c72 0 111 41 111 105s-39 102 -110 102z" />
    <glyph glyph-name="germandbls" unicode="&#xdf;" horiz-adv-x="606" 
d="M341 -9c-28 0 -51 3 -68 8v116c1 -1 3 -1 5 -1c92 -11 145 34 145 130c0 80 -41 127 -126 127h-21v92h10c65 0 108 29 108 89c0 51 -31 85 -87 85c-60 0 -98 -35 -98 -103v-534h-157v539c0 134 96 217 253 217c141 0 236 -75 236 -191c0 -68 -32 -114 -108 -139v-3
c96 -27 145 -93 145 -192c0 -157 -102 -240 -237 -240z" />
    <glyph glyph-name="agrave" unicode="&#xe0;" horiz-adv-x="580" 
d="M546 0h-153c-8 12 -15 34 -18 65h-2c-35 -49 -78 -79 -161 -79c-105 0 -182 56 -182 161c0 117 93 149 209 162c95 13 134 28 134 68c0 39 -24 64 -79 64c-60 0 -89 -27 -93 -70h-145c3 92 79 176 236 176c68 0 116 -9 153 -32c56 -32 81 -87 81 -159v-273
c0 -41 7 -65 20 -74v-9zM243 612l-120 161h183l53 -161h-116zM261 89c71 0 116 43 116 102v69c-23 -15 -57 -22 -92 -30c-69 -15 -102 -31 -102 -78s35 -63 78 -63z" />
    <glyph glyph-name="aacute" unicode="&#xe1;" horiz-adv-x="580" 
d="M546 0h-153c-8 12 -15 34 -18 65h-2c-35 -49 -78 -79 -161 -79c-105 0 -182 56 -182 161c0 117 93 149 209 162c95 13 134 28 134 68c0 39 -24 64 -79 64c-60 0 -89 -27 -93 -70h-145c3 92 79 176 236 176c68 0 116 -9 153 -32c56 -32 81 -87 81 -159v-273
c0 -41 7 -65 20 -74v-9zM232 612l53 161h183l-119 -161h-117zM261 89c71 0 116 43 116 102v69c-23 -15 -57 -22 -92 -30c-69 -15 -102 -31 -102 -78s35 -63 78 -63z" />
    <glyph glyph-name="acircumflex" unicode="&#xe2;" horiz-adv-x="580" 
d="M546 0h-153c-8 12 -15 34 -18 65h-2c-35 -49 -78 -79 -161 -79c-105 0 -182 56 -182 161c0 117 93 149 209 162c95 13 134 28 134 68c0 39 -24 64 -79 64c-60 0 -89 -27 -93 -70h-145c3 92 79 176 236 176c68 0 116 -9 153 -32c56 -32 81 -87 81 -159v-273
c0 -41 7 -65 20 -74v-9zM106 614l108 148h153l109 -148h-135l-47 78h-2l-49 -78h-137zM261 89c71 0 116 43 116 102v69c-23 -15 -57 -22 -92 -30c-69 -15 -102 -31 -102 -78s35 -63 78 -63z" />
    <glyph glyph-name="atilde" unicode="&#xe3;" horiz-adv-x="580" 
d="M546 0h-153c-8 12 -15 34 -18 65h-2c-35 -49 -78 -79 -161 -79c-105 0 -182 56 -182 161c0 117 93 149 209 162c95 13 134 28 134 68c0 39 -24 64 -79 64c-60 0 -89 -27 -93 -70h-145c3 92 79 176 236 176c68 0 116 -9 153 -32c56 -32 81 -87 81 -159v-273
c0 -41 7 -65 20 -74v-9zM366 613c-61 0 -101 41 -131 41c-17 0 -32 -14 -35 -42h-84c0 93 49 141 108 141c64 0 96 -41 129 -41c20 0 31 13 34 39h84c0 -84 -38 -138 -105 -138zM261 89c71 0 116 43 116 102v69c-23 -15 -57 -22 -92 -30c-69 -15 -102 -31 -102 -78
s35 -63 78 -63z" />
    <glyph glyph-name="adieresis" unicode="&#xe4;" horiz-adv-x="580" 
d="M546 0h-153c-8 12 -15 34 -18 65h-2c-35 -49 -78 -79 -161 -79c-105 0 -182 56 -182 161c0 117 93 149 209 162c95 13 134 28 134 68c0 39 -24 64 -79 64c-60 0 -89 -27 -93 -70h-145c3 92 79 176 236 176c68 0 116 -9 153 -32c56 -32 81 -87 81 -159v-273
c0 -41 7 -65 20 -74v-9zM261 89c71 0 116 43 116 102v69c-23 -15 -57 -22 -92 -30c-69 -15 -102 -31 -102 -78s35 -63 78 -63zM98 607v137h149v-137h-149zM341 607v137h148v-137h-148z" />
    <glyph glyph-name="aring" unicode="&#xe5;" horiz-adv-x="580" 
d="M546 0h-153c-8 12 -15 34 -18 65h-2c-35 -49 -78 -79 -161 -79c-105 0 -182 56 -182 161c0 117 93 149 209 162c95 13 134 28 134 68c0 39 -24 64 -79 64c-60 0 -89 -27 -93 -70h-145c3 92 79 176 236 176c68 0 116 -9 153 -32c56 -32 81 -87 81 -159v-273
c0 -41 7 -65 20 -74v-9zM294 596c-63 0 -115 47 -115 110c0 60 52 111 115 111c62 0 114 -51 114 -111c0 -63 -52 -110 -114 -110zM261 89c71 0 116 43 116 102v69c-23 -15 -57 -22 -92 -30c-69 -15 -102 -31 -102 -78s35 -63 78 -63zM294 653c31 0 52 22 52 53
s-21 55 -52 55c-32 0 -53 -24 -53 -55s21 -53 53 -53z" />
    <glyph glyph-name="ae" unicode="&#xe6;" horiz-adv-x="933" 
d="M233 -15c-129 0 -203 57 -203 162c0 117 93 149 209 162c95 13 134 28 134 68c0 39 -24 64 -79 64c-60 0 -89 -27 -93 -70h-145c3 92 79 176 236 176c85 0 146 -22 181 -66c41 41 98 66 171 66c76 0 130 -22 177 -66c64 -59 86 -150 85 -255h-379c9 -80 49 -128 125 -128
c48 0 75 19 92 52h153c-27 -94 -110 -166 -246 -166c-100 0 -167 38 -207 102c-51 -71 -111 -101 -211 -101zM261 89c71 0 116 43 116 102v69c-23 -15 -57 -22 -92 -30c-69 -15 -102 -31 -102 -78s35 -63 78 -63zM642 436c-72 0 -103 -46 -114 -119h218
c-5 75 -44 119 -104 119z" />
    <glyph glyph-name="ccedilla" unicode="&#xe7;" horiz-adv-x="577" 
d="M270 -210c-47 0 -86 13 -113 30l20 39c20 -9 44 -16 69 -16c27 0 49 9 49 33c0 20 -15 29 -35 29c-13 0 -22 -3 -33 -7l-18 26l57 62c-146 16 -239 133 -239 279c0 160 108 282 276 282c142 0 230 -81 249 -197h-152c-11 49 -43 80 -95 80c-80 0 -119 -65 -119 -165
c0 -97 39 -163 119 -163c59 0 93 35 100 96h151c-5 -116 -91 -206 -228 -214l-43 -39v-2c59 8 113 -14 113 -71c0 -51 -52 -82 -128 -82z" />
    <glyph glyph-name="egrave" unicode="&#xe8;" horiz-adv-x="596" 
d="M308 -16c-173 0 -281 122 -281 281c0 160 111 282 273 282c76 0 136 -25 183 -68c60 -59 87 -148 86 -253h-388c11 -80 53 -128 129 -128c49 0 80 19 97 52h152c-27 -94 -115 -166 -251 -166zM250 612l-120 161h183l53 -161h-116zM300 436c-72 0 -107 -46 -118 -119h227
c-5 75 -46 119 -109 119z" />
    <glyph glyph-name="eacute" unicode="&#xe9;" horiz-adv-x="596" 
d="M308 -16c-173 0 -281 122 -281 281c0 160 111 282 273 282c76 0 136 -25 183 -68c60 -59 87 -148 86 -253h-388c11 -80 53 -128 129 -128c49 0 80 19 97 52h152c-27 -94 -115 -166 -251 -166zM239 612l53 161h183l-119 -161h-117zM300 436c-72 0 -107 -46 -118 -119h227
c-5 75 -46 119 -109 119z" />
    <glyph glyph-name="ecircumflex" unicode="&#xea;" horiz-adv-x="596" 
d="M308 -16c-173 0 -281 122 -281 281c0 160 111 282 273 282c76 0 136 -25 183 -68c60 -59 87 -148 86 -253h-388c11 -80 53 -128 129 -128c49 0 80 19 97 52h152c-27 -94 -115 -166 -251 -166zM113 614l108 148h153l109 -148h-135l-47 78h-2l-49 -78h-137zM300 436
c-72 0 -107 -46 -118 -119h227c-5 75 -46 119 -109 119z" />
    <glyph glyph-name="edieresis" unicode="&#xeb;" horiz-adv-x="596" 
d="M308 -16c-173 0 -281 122 -281 281c0 160 111 282 273 282c76 0 136 -25 183 -68c60 -59 87 -148 86 -253h-388c11 -80 53 -128 129 -128c49 0 80 19 97 52h152c-27 -94 -115 -166 -251 -166zM300 436c-72 0 -107 -46 -118 -119h227c-5 75 -46 119 -109 119zM105 607v137
h149v-137h-149zM348 607v137h148v-137h-148z" />
    <glyph glyph-name="igrave" unicode="&#xec;" horiz-adv-x="261" 
d="M52 0v532h157v-532h-157zM80 612l-120 161h183l53 -161h-116z" />
    <glyph glyph-name="iacute" unicode="&#xed;" horiz-adv-x="261" 
d="M52 0v532h157v-532h-157zM69 612l53 161h183l-119 -161h-117z" />
    <glyph glyph-name="icircumflex" unicode="&#xee;" horiz-adv-x="261" 
d="M52 0v532h157v-532h-157zM-57 614l108 148h153l109 -148h-135l-47 78h-2l-49 -78h-137z" />
    <glyph glyph-name="idieresis" unicode="&#xef;" horiz-adv-x="261" 
d="M52 0v532h157v-532h-157zM158 607v137h128v-137h-128zM-25 607v137h129v-137h-129z" />
    <glyph glyph-name="eth" unicode="&#xf0;" horiz-adv-x="616" 
d="M167 557l-29 64l120 37c-37 31 -74 56 -106 79v7h199c17 -12 34 -25 53 -41l101 31l29 -62l-76 -24c70 -83 131 -198 131 -343c0 -180 -80 -322 -280 -322c-171 0 -282 122 -282 282s96 269 243 269c45 0 90 -11 126 -51h3c-19 45 -48 85 -83 121zM308 97
c79 0 121 67 121 168c0 100 -42 164 -122 164s-121 -65 -121 -165s42 -167 122 -167z" />
    <glyph glyph-name="ntilde" unicode="&#xf1;" 
d="M204 532v-81h3c33 64 89 96 164 96c117 0 185 -77 185 -197v-350h-156v320c0 59 -30 97 -89 97c-61 0 -102 -49 -102 -117v-300h-157v532h152zM379 613c-61 0 -101 41 -131 41c-17 0 -32 -14 -35 -42h-84c0 93 49 141 108 141c64 0 96 -41 129 -41c20 0 31 13 34 39h84
c0 -84 -38 -138 -105 -138z" />
    <glyph glyph-name="ograve" unicode="&#xf2;" horiz-adv-x="616" 
d="M309 -17c-171 0 -282 122 -282 282s111 282 282 282c169 0 280 -122 280 -282s-111 -282 -280 -282zM308 97c79 0 122 68 122 168c0 101 -43 170 -122 170c-80 0 -122 -69 -122 -170c0 -100 42 -168 122 -168zM258 612l-120 161h183l53 -161h-116z" />
    <glyph glyph-name="oacute" unicode="&#xf3;" horiz-adv-x="616" 
d="M309 -17c-171 0 -282 122 -282 282s111 282 282 282c169 0 280 -122 280 -282s-111 -282 -280 -282zM308 97c79 0 122 68 122 168c0 101 -43 170 -122 170c-80 0 -122 -69 -122 -170c0 -100 42 -168 122 -168zM247 612l53 161h183l-119 -161h-117z" />
    <glyph glyph-name="ocircumflex" unicode="&#xf4;" horiz-adv-x="616" 
d="M309 -17c-171 0 -282 122 -282 282s111 282 282 282c169 0 280 -122 280 -282s-111 -282 -280 -282zM308 97c79 0 122 68 122 168c0 101 -43 170 -122 170c-80 0 -122 -69 -122 -170c0 -100 42 -168 122 -168zM121 614l108 148h153l109 -148h-135l-47 78h-2l-49 -78h-137
z" />
    <glyph glyph-name="otilde" unicode="&#xf5;" horiz-adv-x="616" 
d="M309 -17c-171 0 -282 122 -282 282s111 282 282 282c169 0 280 -122 280 -282s-111 -282 -280 -282zM308 97c79 0 122 68 122 168c0 101 -43 170 -122 170c-80 0 -122 -69 -122 -170c0 -100 42 -168 122 -168zM381 613c-61 0 -101 41 -131 41c-17 0 -32 -14 -35 -42h-84
c0 93 49 141 108 141c64 0 96 -41 129 -41c20 0 31 13 34 39h84c0 -84 -38 -138 -105 -138z" />
    <glyph glyph-name="odieresis" unicode="&#xf6;" horiz-adv-x="616" 
d="M309 -17c-171 0 -282 122 -282 282s111 282 282 282c169 0 280 -122 280 -282s-111 -282 -280 -282zM308 97c79 0 122 68 122 168c0 101 -43 170 -122 170c-80 0 -122 -69 -122 -170c0 -100 42 -168 122 -168zM356 607v137h148v-137h-148zM113 607v137h149v-137h-149z
" />
    <glyph glyph-name="divide" unicode="&#xf7;" horiz-adv-x="603" 
d="M219 477v147h166v-147h-166zM59 279v127h486v-127h-486zM219 60v147h166v-147h-166z" />
    <glyph glyph-name="oslash" unicode="&#xf8;" horiz-adv-x="616" 
d="M68 -57l-49 44l77 86c-44 51 -69 116 -69 192c0 160 111 282 282 282c67 0 123 -19 168 -51l71 79l49 -44l-72 -80c41 -49 64 -114 64 -186c0 -160 -111 -282 -280 -282c-64 0 -119 16 -163 47zM183 265c0 -31 3 -59 11 -83l198 220c-20 21 -48 34 -84 34
c-80 0 -125 -70 -125 -171zM308 96c79 0 124 69 124 169c0 26 -3 51 -8 74l-195 -216c20 -18 46 -27 79 -27z" />
    <glyph glyph-name="ugrave" unicode="&#xf9;" horiz-adv-x="599" 
d="M547 0h-149v76h-3c-39 -63 -87 -91 -160 -91c-121 0 -187 78 -187 195v352h157v-322c0 -60 29 -93 85 -93c64 0 102 47 102 114v301h155v-532zM246 612l-120 161h183l53 -161h-116z" />
    <glyph glyph-name="uacute" unicode="&#xfa;" horiz-adv-x="599" 
d="M547 0h-149v76h-3c-39 -63 -87 -91 -160 -91c-121 0 -187 78 -187 195v352h157v-322c0 -60 29 -93 85 -93c64 0 102 47 102 114v301h155v-532zM235 612l53 161h183l-119 -161h-117z" />
    <glyph glyph-name="ucircumflex" unicode="&#xfb;" horiz-adv-x="599" 
d="M547 0h-149v76h-3c-39 -63 -87 -91 -160 -91c-121 0 -187 78 -187 195v352h157v-322c0 -60 29 -93 85 -93c64 0 102 47 102 114v301h155v-532zM109 614l108 148h153l109 -148h-135l-47 78h-2l-49 -78h-137z" />
    <glyph glyph-name="udieresis" unicode="&#xfc;" horiz-adv-x="599" 
d="M547 0h-149v76h-3c-39 -63 -87 -91 -160 -91c-121 0 -187 78 -187 195v352h157v-322c0 -60 29 -93 85 -93c64 0 102 47 102 114v301h155v-532zM101 607v137h149v-137h-149zM344 607v137h148v-137h-148z" />
    <glyph glyph-name="yacute" unicode="&#xfd;" horiz-adv-x="557" 
d="M168 -178c-5 0 -102 2 -105 2v123h8c3 0 47 -1 51 -1c47 0 73 18 76 54c0 19 -9 59 -28 107l-165 425h165l68 -204c12 -36 23 -83 31 -120c5 -22 9 -44 13 -65h2l15 66c9 37 20 83 32 119l65 204h156l-190 -545c-43 -123 -93 -165 -194 -165zM221 612l53 161h183
l-119 -161h-117z" />
    <glyph glyph-name="thorn" unicode="&#xfe;" horiz-adv-x="622" 
d="M367 -17c-72 0 -130 31 -161 83h-2c3 -20 5 -59 5 -116v-126h-157v920h157v-163c0 -45 -2 -91 -5 -123h3c36 55 88 89 161 89c141 0 229 -118 229 -281c0 -173 -91 -283 -230 -283zM326 105c72 0 112 60 112 156s-37 161 -114 161c-80 0 -120 -71 -120 -161
c0 -92 42 -156 122 -156z" />
    <glyph glyph-name="ydieresis" unicode="&#xff;" horiz-adv-x="557" 
d="M168 -178c-5 0 -102 2 -105 2v123h8c3 0 47 -1 51 -1c47 0 73 18 76 54c0 19 -9 59 -28 107l-165 425h165l68 -204c12 -36 23 -83 31 -120c5 -22 9 -44 13 -65h2l15 66c9 37 20 83 32 119l65 204h156l-190 -545c-43 -123 -93 -165 -194 -165zM330 607v137h148v-137h-148z
M87 607v137h149v-137h-149z" />
    <glyph glyph-name="Amacron" unicode="&#x100;" horiz-adv-x="736" 
d="M10 0l268 744h177l269 -744h-180l-47 142h-270l-46 -142h-171zM211 789v111h312v-111h-312zM313 403l-46 -139h191l-45 139c-16 51 -28 100 -36 137c-5 22 -9 42 -12 61h-2c-5 -25 -11 -49 -16 -72c-11 -40 -22 -90 -34 -126z" />
    <glyph glyph-name="amacron" unicode="&#x101;" horiz-adv-x="580" 
d="M546 0h-153c-8 12 -15 34 -18 65h-2c-35 -49 -78 -79 -161 -79c-105 0 -182 56 -182 161c0 117 93 149 209 162c95 13 134 28 134 68c0 39 -24 64 -79 64c-60 0 -89 -27 -93 -70h-145c3 92 79 176 236 176c68 0 116 -9 153 -32c56 -32 81 -87 81 -159v-273
c0 -41 7 -65 20 -74v-9zM137 615v111h312v-111h-312zM261 89c71 0 116 43 116 102v69c-23 -15 -57 -22 -92 -30c-69 -15 -102 -31 -102 -78s35 -63 78 -63z" />
    <glyph glyph-name="Abreve" unicode="&#x102;" horiz-adv-x="736" 
d="M10 0l268 744h177l269 -744h-180l-47 142h-270l-46 -142h-171zM370 779c-96 0 -160 59 -164 142h91c7 -24 28 -45 72 -45c41 0 63 24 70 45h89c-3 -79 -62 -142 -158 -142zM313 403l-46 -139h191l-45 139c-16 51 -28 100 -36 137c-5 22 -9 42 -12 61h-2
c-5 -25 -11 -49 -16 -72c-11 -40 -22 -90 -34 -126z" />
    <glyph glyph-name="abreve" unicode="&#x103;" horiz-adv-x="580" 
d="M546 0h-153c-8 12 -15 34 -18 65h-2c-35 -49 -78 -79 -161 -79c-105 0 -182 56 -182 161c0 117 93 149 209 162c95 13 134 28 134 68c0 39 -24 64 -79 64c-60 0 -89 -27 -93 -70h-145c3 92 79 176 236 176c68 0 116 -9 153 -32c56 -32 81 -87 81 -159v-273
c0 -41 7 -65 20 -74v-9zM296 606c-91 0 -163 60 -166 155h91c5 -36 30 -58 74 -58c41 0 67 25 72 58h89c-3 -92 -67 -155 -160 -155zM261 89c71 0 116 43 116 102v69c-23 -15 -57 -22 -92 -30c-69 -15 -102 -31 -102 -78s35 -63 78 -63z" />
    <glyph glyph-name="Aogonek" unicode="&#x104;" horiz-adv-x="736" 
d="M647 -184c-80 0 -121 33 -121 84c0 53 42 84 79 100h-61l-47 142h-270l-46 -142h-171l268 744h177l267 -739c-48 -23 -69 -54 -69 -78c0 -18 11 -27 33 -27c12 0 21 1 29 4h2v-79c-13 -5 -34 -9 -70 -9zM313 403l-46 -139h191l-45 139c-16 51 -28 100 -36 137
c-5 22 -9 42 -12 61h-2c-5 -25 -11 -49 -16 -72c-11 -40 -22 -90 -34 -126z" />
    <glyph glyph-name="aogonek" unicode="&#x105;" horiz-adv-x="580" 
d="M480 -184c-80 0 -119 33 -119 84s37 80 73 100h-41c-8 12 -15 34 -18 65h-2c-35 -49 -78 -79 -161 -79c-105 0 -182 56 -182 161c0 117 93 149 209 162c95 13 134 28 134 68c0 39 -24 64 -79 64c-60 0 -89 -27 -93 -70h-145c3 92 79 176 236 176c68 0 116 -9 153 -32
c56 -32 81 -87 81 -159v-273c0 -41 7 -65 20 -74v-9c-40 -19 -60 -48 -60 -73c0 -18 11 -27 33 -27c12 0 21 1 29 4h2v-79c-13 -5 -34 -9 -70 -9zM261 89c71 0 116 43 116 102v69c-23 -15 -57 -22 -92 -30c-69 -15 -102 -31 -102 -78s35 -63 78 -63z" />
    <glyph glyph-name="Cacute" unicode="&#x106;" horiz-adv-x="749" 
d="M397 -17c-217 0 -365 164 -365 386c0 221 144 388 365 388c83 0 153 -19 204 -58c68 -49 106 -122 115 -206h-170c-11 71 -66 122 -150 122c-127 0 -190 -105 -190 -246s74 -245 191 -245c92 0 147 59 155 136h171c-5 -75 -39 -142 -90 -193c-56 -56 -132 -84 -236 -84z
M316 785l43 131h189l-109 -131h-123z" />
    <glyph glyph-name="cacute" unicode="&#x107;" horiz-adv-x="577" 
d="M307 -17c-170 0 -280 122 -280 282s108 282 276 282c142 0 230 -81 249 -197h-152c-11 49 -43 80 -95 80c-80 0 -119 -65 -119 -165c0 -97 39 -163 119 -163c59 0 93 35 100 96h151c-5 -121 -101 -215 -249 -215zM235 612l53 161h183l-119 -161h-117z" />
    <glyph glyph-name="Ccircumflex" unicode="&#x108;" horiz-adv-x="749" 
d="M397 -17c-217 0 -365 164 -365 386c0 221 144 388 365 388c83 0 153 -19 204 -58c68 -49 106 -122 115 -206h-170c-11 71 -66 122 -150 122c-127 0 -190 -105 -190 -246s74 -245 191 -245c92 0 147 59 155 136h171c-5 -75 -39 -142 -90 -193c-56 -56 -132 -84 -236 -84z
M197 785l108 131h153l109 -131h-136l-46 57h-2l-48 -57h-138z" />
    <glyph glyph-name="ccircumflex" unicode="&#x109;" horiz-adv-x="577" 
d="M307 -17c-170 0 -280 122 -280 282s108 282 276 282c142 0 230 -81 249 -197h-152c-11 49 -43 80 -95 80c-80 0 -119 -65 -119 -165c0 -97 39 -163 119 -163c59 0 93 35 100 96h151c-5 -121 -101 -215 -249 -215zM109 614l108 148h153l109 -148h-135l-47 78h-2l-49 -78
h-137z" />
    <glyph glyph-name="Cdotaccent" unicode="&#x10a;" horiz-adv-x="749" 
d="M397 -17c-217 0 -365 164 -365 386c0 221 144 388 365 388c83 0 153 -19 204 -58c68 -49 106 -122 115 -206h-170c-11 71 -66 122 -150 122c-127 0 -190 -105 -190 -246s74 -245 191 -245c92 0 147 59 155 136h171c-5 -75 -39 -142 -90 -193c-56 -56 -132 -84 -236 -84z
M306 785v135h159v-135h-159z" />
    <glyph glyph-name="cdotaccent" unicode="&#x10b;" horiz-adv-x="577" 
d="M307 -17c-170 0 -280 122 -280 282s108 282 276 282c142 0 230 -81 249 -197h-152c-11 49 -43 80 -95 80c-80 0 -119 -65 -119 -165c0 -97 39 -163 119 -163c59 0 93 35 100 96h151c-5 -121 -101 -215 -249 -215zM217 607v137h159v-137h-159z" />
    <glyph glyph-name="Ccaron" unicode="&#x10c;" horiz-adv-x="749" 
d="M397 -17c-217 0 -365 164 -365 386c0 221 144 388 365 388c83 0 153 -19 204 -58c68 -49 106 -122 115 -206h-170c-11 71 -66 122 -150 122c-127 0 -190 -105 -190 -246s74 -245 191 -245c92 0 147 59 155 136h171c-5 -75 -39 -142 -90 -193c-56 -56 -132 -84 -236 -84z
M572 916l-108 -131h-153l-109 131h136l46 -57h2l48 57h138z" />
    <glyph glyph-name="ccaron" unicode="&#x10d;" horiz-adv-x="577" 
d="M307 -17c-170 0 -280 122 -280 282s108 282 276 282c142 0 230 -81 249 -197h-152c-11 49 -43 80 -95 80c-80 0 -119 -65 -119 -165c0 -97 39 -163 119 -163c59 0 93 35 100 96h151c-5 -121 -101 -215 -249 -215zM483 760l-108 -148h-153l-109 148h135l47 -78h2l49 78
h137z" />
    <glyph glyph-name="Dcaron" unicode="&#x10e;" horiz-adv-x="748" 
d="M65 0v744h310c209 0 343 -149 343 -377c0 -220 -125 -367 -353 -367h-300zM236 144h116c129 0 192 80 192 223c0 141 -64 233 -189 233h-119v-456zM533 916l-108 -131h-153l-109 131h136l46 -57h2l48 57h138z" />
    <glyph glyph-name="dcaron" unicode="&#x10f;" horiz-adv-x="622" 
d="M255 -17c-139 0 -228 107 -228 283c0 163 91 281 230 281c73 0 122 -33 158 -89h2c-3 33 -4 78 -4 123v163h157v-744h-151v78h-2c-31 -65 -90 -95 -162 -95zM297 109c76 0 121 64 121 157c0 94 -40 162 -120 162c-75 0 -111 -65 -111 -161s37 -158 110 -158zM607 550v50
c40 4 58 21 59 48h-59v96h131v-64c0 -92 -48 -126 -131 -130z" />
    <glyph glyph-name="Dcroat" unicode="&#x110;" horiz-adv-x="748" 
d="M5 311v133h60v300h310c209 0 343 -149 343 -377c0 -220 -125 -367 -353 -367h-300v311h-60zM234 144h118c129 0 192 80 192 223c0 141 -64 233 -189 233h-121v-156h171v-133h-171v-167z" />
    <glyph glyph-name="dcroat" unicode="&#x111;" horiz-adv-x="622" 
d="M276 596v80h137v68h157v-68h58v-80h-58v-596h-151v78h-2c-31 -65 -90 -95 -162 -95c-139 0 -228 107 -228 283c0 163 91 281 230 281c73 0 122 -33 158 -89h2c-3 33 -4 78 -4 123v15h-137zM297 109c76 0 121 64 121 157c0 94 -40 162 -120 162c-75 0 -111 -65 -111 -161
s37 -158 110 -158z" />
    <glyph glyph-name="Emacron" unicode="&#x112;" horiz-adv-x="670" 
d="M63 0v744h558v-142h-388v-148h336v-135h-336v-173h395v-146h-565zM196 789v111h312v-111h-312z" />
    <glyph glyph-name="emacron" unicode="&#x113;" horiz-adv-x="596" 
d="M308 -16c-173 0 -281 122 -281 281c0 160 111 282 273 282c76 0 136 -25 183 -68c60 -59 87 -148 86 -253h-388c11 -80 53 -128 129 -128c49 0 80 19 97 52h152c-27 -94 -115 -166 -251 -166zM144 615v111h312v-111h-312zM300 436c-72 0 -107 -46 -118 -119h227
c-5 75 -46 119 -109 119z" />
    <glyph glyph-name="Ebreve" unicode="&#x114;" horiz-adv-x="670" 
d="M63 0v744h558v-142h-388v-148h336v-135h-336v-173h395v-146h-565zM355 779c-96 0 -160 59 -164 142h91c7 -24 28 -45 72 -45c41 0 63 24 70 45h89c-3 -79 -62 -142 -158 -142z" />
    <glyph glyph-name="ebreve" unicode="&#x115;" horiz-adv-x="596" 
d="M308 -16c-173 0 -281 122 -281 281c0 160 111 282 273 282c76 0 136 -25 183 -68c60 -59 87 -148 86 -253h-388c11 -80 53 -128 129 -128c49 0 80 19 97 52h152c-27 -94 -115 -166 -251 -166zM303 606c-91 0 -163 60 -166 155h91c5 -36 30 -58 74 -58c41 0 67 25 72 58
h89c-3 -92 -67 -155 -160 -155zM300 436c-72 0 -107 -46 -118 -119h227c-5 75 -46 119 -109 119z" />
    <glyph glyph-name="Edotaccent" unicode="&#x116;" horiz-adv-x="670" 
d="M63 0v744h558v-142h-388v-148h336v-135h-336v-173h395v-146h-565zM273 785v135h159v-135h-159z" />
    <glyph glyph-name="edotaccent" unicode="&#x117;" horiz-adv-x="596" 
d="M308 -16c-173 0 -281 122 -281 281c0 160 111 282 273 282c76 0 136 -25 183 -68c60 -59 87 -148 86 -253h-388c11 -80 53 -128 129 -128c49 0 80 19 97 52h152c-27 -94 -115 -166 -251 -166zM221 607v137h159v-137h-159zM300 436c-72 0 -107 -46 -118 -119h227
c-5 75 -46 119 -109 119z" />
    <glyph glyph-name="Eogonek" unicode="&#x118;" horiz-adv-x="670" 
d="M63 0v744h558v-142h-388v-148h336v-135h-336v-173h395v-146h-59c-29 -23 -49 -50 -49 -73c0 -18 11 -27 33 -27c12 0 21 1 29 4h2v-79c-13 -5 -34 -9 -70 -9c-80 0 -121 33 -121 84c0 49 32 81 69 100h-399z" />
    <glyph glyph-name="eogonek" unicode="&#x119;" horiz-adv-x="596" 
d="M383 -184c-80 0 -119 33 -119 84c0 40 28 67 56 84h-12c-173 0 -281 122 -281 281c0 160 111 282 273 282c76 0 136 -25 183 -68c60 -59 87 -148 86 -253h-388c11 -80 53 -128 129 -128c49 0 80 19 97 52h152c-13 -47 -38 -78 -70 -109c-34 -31 -100 -69 -100 -114
c0 -18 11 -27 33 -27c12 0 21 1 29 4h2v-79c-13 -5 -34 -9 -70 -9zM300 436c-72 0 -107 -46 -118 -119h227c-5 75 -46 119 -109 119z" />
    <glyph glyph-name="Ecaron" unicode="&#x11a;" horiz-adv-x="670" 
d="M63 0v744h558v-142h-388v-148h336v-135h-336v-173h395v-146h-565zM539 916l-108 -131h-153l-109 131h136l46 -57h2l48 57h138z" />
    <glyph glyph-name="ecaron" unicode="&#x11b;" horiz-adv-x="596" 
d="M308 -16c-173 0 -281 122 -281 281c0 160 111 282 273 282c76 0 136 -25 183 -68c60 -59 87 -148 86 -253h-388c11 -80 53 -128 129 -128c49 0 80 19 97 52h152c-27 -94 -115 -166 -251 -166zM487 760l-108 -148h-153l-109 148h135l47 -78h2l49 78h137zM300 436
c-72 0 -107 -46 -118 -119h227c-5 75 -46 119 -109 119z" />
    <glyph glyph-name="Gcircumflex" unicode="&#x11c;" horiz-adv-x="784" 
d="M617 0l-14 100h-3c-44 -83 -122 -117 -214 -117c-107 0 -192 39 -253 104c-65 71 -99 167 -99 282c0 128 45 237 129 308c60 51 136 80 235 80c188 0 298 -101 325 -242h-170c-19 56 -65 101 -150 101c-132 0 -196 -107 -196 -247c0 -143 76 -247 198 -247
c104 0 169 71 169 146v3h-150v127h311v-398h-118zM199 785l108 131h153l109 -131h-136l-46 57h-2l-48 -57h-138z" />
    <glyph glyph-name="gcircumflex" unicode="&#x11d;" horiz-adv-x="613" 
d="M299 -185c-147 0 -240 61 -256 166h153c11 -32 40 -54 101 -54c75 0 111 38 111 103v11c0 29 1 52 3 70h-4c-31 -52 -79 -78 -144 -78c-123 0 -232 91 -232 252c0 156 93 262 224 262c72 0 122 -23 153 -83h2v68h150v-485c0 -80 -26 -135 -69 -174
c-47 -40 -113 -58 -192 -58zM298 151c80 0 115 60 115 139s-39 138 -116 138c-69 0 -112 -54 -112 -139c0 -84 42 -138 113 -138zM118 614l108 148h153l109 -148h-135l-47 78h-2l-49 -78h-137z" />
    <glyph glyph-name="Gbreve" unicode="&#x11e;" horiz-adv-x="784" 
d="M617 0l-14 100h-3c-44 -83 -122 -117 -214 -117c-107 0 -192 39 -253 104c-65 71 -99 167 -99 282c0 128 45 237 129 308c60 51 136 80 235 80c188 0 298 -101 325 -242h-170c-19 56 -65 101 -150 101c-132 0 -196 -107 -196 -247c0 -143 76 -247 198 -247
c104 0 169 71 169 146v3h-150v127h311v-398h-118zM390 779c-96 0 -160 59 -164 142h91c7 -24 28 -45 72 -45c41 0 63 24 70 45h89c-3 -79 -62 -142 -158 -142z" />
    <glyph glyph-name="gbreve" unicode="&#x11f;" horiz-adv-x="613" 
d="M299 -185c-147 0 -240 61 -256 166h153c11 -32 40 -54 101 -54c75 0 111 38 111 103v11c0 29 1 52 3 70h-4c-31 -52 -79 -78 -144 -78c-123 0 -232 91 -232 252c0 156 93 262 224 262c72 0 122 -23 153 -83h2v68h150v-485c0 -80 -26 -135 -69 -174
c-47 -40 -113 -58 -192 -58zM298 151c80 0 115 60 115 139s-39 138 -116 138c-69 0 -112 -54 -112 -139c0 -84 42 -138 113 -138zM308 606c-91 0 -163 60 -166 155h91c5 -36 30 -58 74 -58c41 0 67 25 72 58h89c-3 -92 -67 -155 -160 -155z" />
    <glyph glyph-name="Gdotaccent" unicode="&#x120;" horiz-adv-x="784" 
d="M617 0l-14 100h-3c-44 -83 -122 -117 -214 -117c-107 0 -192 39 -253 104c-65 71 -99 167 -99 282c0 128 45 237 129 308c60 51 136 80 235 80c188 0 298 -101 325 -242h-170c-19 56 -65 101 -150 101c-132 0 -196 -107 -196 -247c0 -143 76 -247 198 -247
c104 0 169 71 169 146v3h-150v127h311v-398h-118zM308 785v135h159v-135h-159z" />
    <glyph glyph-name="gdotaccent" unicode="&#x121;" horiz-adv-x="613" 
d="M299 -185c-147 0 -240 61 -256 166h153c11 -32 40 -54 101 -54c75 0 111 38 111 103v11c0 29 1 52 3 70h-4c-31 -52 -79 -78 -144 -78c-123 0 -232 91 -232 252c0 156 93 262 224 262c72 0 122 -23 153 -83h2v68h150v-485c0 -80 -26 -135 -69 -174
c-47 -40 -113 -58 -192 -58zM298 151c80 0 115 60 115 139s-39 138 -116 138c-69 0 -112 -54 -112 -139c0 -84 42 -138 113 -138zM226 607v137h159v-137h-159z" />
    <glyph glyph-name="uni0122" unicode="&#x122;" horiz-adv-x="784" 
d="M617 0l-14 100h-3c-44 -83 -122 -117 -214 -117c-107 0 -192 39 -253 104c-65 71 -99 167 -99 282c0 128 45 237 129 308c60 51 136 80 235 80c188 0 298 -101 325 -242h-170c-19 56 -65 101 -150 101c-132 0 -196 -107 -196 -247c0 -143 76 -247 198 -247
c104 0 169 71 169 146v3h-150v127h311v-398h-118zM310 -263v53c43 8 71 25 71 56h-67v103h151v-71c0 -95 -68 -136 -155 -141z" />
    <glyph glyph-name="uni0123" unicode="&#x123;" horiz-adv-x="613" 
d="M299 -185c-147 0 -240 61 -256 166h153c11 -32 40 -54 101 -54c75 0 111 38 111 103v11c0 29 1 52 3 70h-4c-31 -52 -79 -78 -144 -78c-123 0 -232 91 -232 252c0 156 93 262 224 262c72 0 122 -23 153 -83h2v68h150v-485c0 -80 -26 -135 -69 -174
c-47 -40 -113 -58 -192 -58zM298 151c80 0 115 60 115 139s-39 138 -116 138c-69 0 -112 -54 -112 -139c0 -84 42 -138 113 -138zM383 819v-53c-43 -8 -71 -25 -71 -56h67v-103h-151v71c0 95 68 136 155 141z" />
    <glyph glyph-name="Hcircumflex" unicode="&#x124;" horiz-adv-x="747" 
d="M63 0v744h170v-287h281v287h170v-744h-170v315h-281v-315h-170zM185 785l108 131h153l109 -131h-136l-46 57h-2l-48 -57h-138z" />
    <glyph glyph-name="hcircumflex" unicode="&#x125;" 
d="M209 744v-205c0 -4 -1 -48 -1 -83h3c32 57 85 91 160 91c117 0 185 -77 185 -197v-350h-156v320c0 59 -30 97 -89 97c-61 0 -102 -49 -102 -117v-300h-157v744h157zM116 785l108 131h153l109 -131h-136l-46 57h-2l-48 -57h-138z" />
    <glyph glyph-name="Hbar" unicode="&#x126;" horiz-adv-x="747" 
d="M2 538v91h61v115h170v-115h281v115h170v-115h60v-91h-60v-538h-170v315h-281v-315h-170v538h-61zM233 538v-87h281v87h-281z" />
    <glyph glyph-name="hbar" unicode="&#x127;" 
d="M-6 596v80h58v68h157v-68h137v-80h-137v-57c0 -4 -1 -48 -1 -83h3c32 57 85 91 160 91c117 0 185 -77 185 -197v-350h-156v320c0 59 -30 97 -89 97c-61 0 -102 -49 -102 -117v-300h-157v596h-58z" />
    <glyph glyph-name="Itilde" unicode="&#x128;" horiz-adv-x="298" 
d="M63 0v744h171v-744h-171zM221 786c-61 0 -99 40 -130 40c-17 0 -31 -13 -34 -41h-86c0 93 49 141 108 141c63 0 95 -40 127 -40c20 0 31 13 34 38h86c0 -84 -38 -138 -105 -138z" />
    <glyph glyph-name="itilde" unicode="&#x129;" horiz-adv-x="261" 
d="M52 0v532h157v-532h-157zM203 613c-61 0 -101 41 -131 41c-17 0 -32 -14 -35 -42h-84c0 93 49 141 108 141c64 0 96 -41 129 -41c20 0 31 13 34 39h84c0 -84 -38 -138 -105 -138z" />
    <glyph glyph-name="Imacron" unicode="&#x12a;" horiz-adv-x="298" 
d="M63 0v744h171v-744h-171zM4 789v111h288v-111h-288z" />
    <glyph glyph-name="imacron" unicode="&#x12b;" horiz-adv-x="261" 
d="M52 0v532h157v-532h-157zM4 615v111h252v-111h-252z" />
    <glyph glyph-name="Iogonek" unicode="&#x12e;" horiz-adv-x="298" 
d="M63 0v744h171v-742c-39 -19 -60 -51 -60 -75c0 -18 11 -27 33 -27c12 0 21 1 29 4h2v-79c-13 -5 -34 -9 -70 -9c-80 0 -121 33 -121 84c0 49 37 81 72 100h-56z" />
    <glyph glyph-name="iogonek" unicode="&#x12f;" horiz-adv-x="261" 
d="M52 0v532h157v-530c-37 -21 -57 -52 -57 -75c0 -18 11 -27 33 -27c12 0 21 1 29 4h2v-79c-13 -5 -34 -9 -70 -9c-77 0 -118 33 -118 84s34 83 69 100h-45zM51 607v137h159v-137h-159z" />
    <glyph glyph-name="Idotaccent" unicode="&#x130;" horiz-adv-x="298" 
d="M63 0v744h171v-744h-171zM69 785v135h159v-135h-159z" />
    <glyph glyph-name="dotlessi" unicode="&#x131;" horiz-adv-x="261" 
d="M52 0v532h157v-532h-157z" />
    <glyph glyph-name="IJ" unicode="&#x132;" horiz-adv-x="860" 
d="M63 0v744h171v-744h-171zM561 -14c-171 0 -255 91 -255 239v57h157v-53c0 -75 32 -102 88 -102c57 0 83 34 83 94v523h171v-527c0 -63 -16 -113 -47 -150c-40 -51 -106 -81 -197 -81z" />
    <glyph glyph-name="ij" unicode="&#x133;" horiz-adv-x="522" 
d="M313 -181c-28 0 -65 3 -89 8v111h6c15 0 26 0 37 1c31 3 46 15 46 54v539h157v-545c0 -68 -15 -104 -40 -128c-29 -29 -69 -40 -117 -40zM52 0v532h157v-532h-157zM312 607v137h159v-137h-159zM51 607v137h159v-137h-159z" />
    <glyph glyph-name="Jcircumflex" unicode="&#x134;" horiz-adv-x="579" 
d="M280 -14c-171 0 -255 91 -255 239v57h157v-53c0 -75 32 -102 88 -102c57 0 83 34 83 94v523h171v-527c0 -63 -16 -113 -47 -150c-40 -51 -106 -81 -197 -81zM246 785l108 131h153l109 -131h-136l-46 57h-2l-48 -57h-138z" />
    <glyph glyph-name="jcircumflex" unicode="&#x135;" horiz-adv-x="261" 
d="M52 -181c-28 0 -65 3 -89 8v111h6c15 0 26 0 37 1c31 3 46 15 46 54v539h157v-545c0 -68 -15 -104 -40 -128c-29 -29 -69 -40 -117 -40zM-59 614l108 148h153l109 -148h-135l-47 78h-2l-49 -78h-137z" />
    <glyph glyph-name="uni0136" unicode="&#x136;" horiz-adv-x="736" 
d="M63 0v744h170v-122c0 -68 -3 -136 -6 -176l278 298h204l-287 -299l305 -445h-199l-227 337l-68 -71v-266h-170zM290 -263v53c43 8 71 25 71 56h-67v103h151v-71c0 -95 -68 -136 -155 -141z" />
    <glyph glyph-name="uni0137" unicode="&#x137;" horiz-adv-x="590" 
d="M399 0l-139 232l-53 -55v-177h-155v744h155v-232c0 -79 -2 -136 -5 -171l175 191h182l-190 -197l212 -335h-182zM217 -263v53c43 8 71 25 71 56h-67v103h151v-71c0 -95 -68 -136 -155 -141z" />
    <glyph glyph-name="Lacute" unicode="&#x139;" 
d="M63 0v744h170v-598h343v-146h-513zM78 785l43 131h189l-109 -131h-123z" />
    <glyph glyph-name="lacute" unicode="&#x13a;" horiz-adv-x="265" 
d="M54 0v744h158v-744h-158zM64 785l43 131h189l-109 -131h-123z" />
    <glyph glyph-name="uni013B" unicode="&#x13b;" 
d="M63 0v744h170v-598h343v-146h-513zM244 -263v53c43 8 71 25 71 56h-67v103h151v-71c0 -95 -68 -136 -155 -141z" />
    <glyph glyph-name="uni013C" unicode="&#x13c;" horiz-adv-x="265" 
d="M54 0v744h158v-744h-158zM56 -263v53c43 8 71 25 71 56h-67v103h151v-71c0 -95 -68 -136 -155 -141z" />
    <glyph glyph-name="Lcaron" unicode="&#x13d;" 
d="M359 513v54c45 4 67 28 68 59h-68v118h149v-83c0 -103 -54 -144 -149 -148zM63 0v744h170v-598h343v-146h-513z" />
    <glyph glyph-name="lcaron" unicode="&#x13e;" horiz-adv-x="265" 
d="M54 0v744h158v-744h-158zM250 550v50c40 4 58 21 59 48h-59v96h131v-64c0 -92 -48 -126 -131 -130z" />
    <glyph glyph-name="Ldot" unicode="&#x13f;" 
d="M63 0v744h170v-598h343v-146h-513zM382 292v140h142v-140h-142z" />
    <glyph glyph-name="ldot" unicode="&#x140;" horiz-adv-x="402" 
d="M54 0v744h158v-744h-158zM263 292v140h142v-140h-142z" />
    <glyph glyph-name="Lslash" unicode="&#x141;" horiz-adv-x="610" 
d="M5 195v116l64 33v400h170v-310l209 110v-116l-209 -110v-172h343v-146h-513v228z" />
    <glyph glyph-name="lslash" unicode="&#x142;" horiz-adv-x="315" 
d="M10 201v115l68 50v378h158v-262l76 56v-116l-76 -56v-366h-158v251z" />
    <glyph glyph-name="Nacute" unicode="&#x143;" horiz-adv-x="753" 
d="M63 0v744h174l196 -323c23 -39 47 -86 67 -126l35 -70h2c-2 25 -4 51 -5 77c-3 44 -4 98 -4 141v301h163v-744h-175l-194 319c-23 37 -48 88 -68 128c-12 23 -24 47 -35 71h-2c1 -26 3 -52 4 -78c3 -44 5 -98 5 -141v-299h-163zM315 785l43 131h189l-109 -131h-123z" />
    <glyph glyph-name="nacute" unicode="&#x144;" 
d="M204 532v-81h3c33 64 89 96 164 96c117 0 185 -77 185 -197v-350h-156v320c0 59 -30 97 -89 97c-61 0 -102 -49 -102 -117v-300h-157v532h152zM245 612l53 161h183l-119 -161h-117z" />
    <glyph glyph-name="uni0145" unicode="&#x145;" horiz-adv-x="753" 
d="M63 0v744h174l196 -323c23 -39 47 -86 67 -126l35 -70h2c-2 25 -4 51 -5 77c-3 44 -4 98 -4 141v301h163v-744h-175l-194 319c-23 37 -48 88 -68 128c-12 23 -24 47 -35 71h-2c1 -26 3 -52 4 -78c3 -44 5 -98 5 -141v-299h-163zM291 -263v53c43 8 71 25 71 56h-67v103
h151v-71c0 -95 -68 -136 -155 -141z" />
    <glyph glyph-name="uni0146" unicode="&#x146;" 
d="M204 532v-81h3c33 64 89 96 164 96c117 0 185 -77 185 -197v-350h-156v320c0 59 -30 97 -89 97c-61 0 -102 -49 -102 -117v-300h-157v532h152zM229 -263v53c43 8 71 25 71 56h-67v103h151v-71c0 -95 -68 -136 -155 -141z" />
    <glyph glyph-name="Ncaron" unicode="&#x147;" horiz-adv-x="753" 
d="M63 0v744h174l196 -323c23 -39 47 -86 67 -126l35 -70h2c-2 25 -4 51 -5 77c-3 44 -4 98 -4 141v301h163v-744h-175l-194 319c-23 37 -48 88 -68 128c-12 23 -24 47 -35 71h-2c1 -26 3 -52 4 -78c3 -44 5 -98 5 -141v-299h-163zM571 916l-108 -131h-153l-109 131h136
l46 -57h2l48 57h138z" />
    <glyph glyph-name="ncaron" unicode="&#x148;" 
d="M204 532v-81h3c33 64 89 96 164 96c117 0 185 -77 185 -197v-350h-156v320c0 59 -30 97 -89 97c-61 0 -102 -49 -102 -117v-300h-157v532h152zM493 760l-108 -148h-153l-109 148h135l47 -78h2l49 78h137z" />
    <glyph glyph-name="napostrophe" unicode="&#x149;" 
d="M204 532v-81h3c33 64 89 96 164 96c117 0 185 -77 185 -197v-350h-156v320c0 59 -30 97 -89 97c-61 0 -102 -49 -102 -117v-300h-157v532h152zM-35 550v50c40 4 58 21 59 48h-59v96h131v-64c0 -92 -48 -126 -131 -130z" />
    <glyph glyph-name="Omacron" unicode="&#x14c;" horiz-adv-x="799" 
d="M400 -18c-227 0 -368 165 -368 387c0 223 141 388 368 388c225 0 367 -165 367 -388c0 -222 -142 -387 -367 -387zM401 122c128 0 192 107 192 247c0 141 -64 250 -192 250s-195 -109 -195 -250c0 -140 67 -247 195 -247zM243 789v111h312v-111h-312z" />
    <glyph glyph-name="omacron" unicode="&#x14d;" horiz-adv-x="616" 
d="M309 -17c-171 0 -282 122 -282 282s111 282 282 282c169 0 280 -122 280 -282s-111 -282 -280 -282zM308 97c79 0 122 68 122 168c0 101 -43 170 -122 170c-80 0 -122 -69 -122 -170c0 -100 42 -168 122 -168zM152 615v111h312v-111h-312z" />
    <glyph glyph-name="Obreve" unicode="&#x14e;" horiz-adv-x="799" 
d="M400 -18c-227 0 -368 165 -368 387c0 223 141 388 368 388c225 0 367 -165 367 -388c0 -222 -142 -387 -367 -387zM401 122c128 0 192 107 192 247c0 141 -64 250 -192 250s-195 -109 -195 -250c0 -140 67 -247 195 -247zM402 779c-96 0 -160 59 -164 142h91
c7 -24 28 -45 72 -45c41 0 63 24 70 45h89c-3 -79 -62 -142 -158 -142z" />
    <glyph glyph-name="obreve" unicode="&#x14f;" horiz-adv-x="616" 
d="M309 -17c-171 0 -282 122 -282 282s111 282 282 282c169 0 280 -122 280 -282s-111 -282 -280 -282zM308 97c79 0 122 68 122 168c0 101 -43 170 -122 170c-80 0 -122 -69 -122 -170c0 -100 42 -168 122 -168zM311 606c-91 0 -163 60 -166 155h91c5 -36 30 -58 74 -58
c41 0 67 25 72 58h89c-3 -92 -67 -155 -160 -155z" />
    <glyph glyph-name="Ohungarumlaut" unicode="&#x150;" horiz-adv-x="799" 
d="M400 -18c-227 0 -368 165 -368 387c0 223 141 388 368 388c225 0 367 -165 367 -388c0 -222 -142 -387 -367 -387zM401 122c128 0 192 107 192 247c0 141 -64 250 -192 250s-195 -109 -195 -250c0 -140 67 -247 195 -247zM443 785l35 131h156l-89 -131h-102zM246 785
l36 131h156l-90 -131h-102z" />
    <glyph glyph-name="ohungarumlaut" unicode="&#x151;" horiz-adv-x="616" 
d="M309 -17c-171 0 -282 122 -282 282s111 282 282 282c169 0 280 -122 280 -282s-111 -282 -280 -282zM308 97c79 0 122 68 122 168c0 101 -43 170 -122 170c-80 0 -122 -69 -122 -170c0 -100 42 -168 122 -168zM349 612l48 161h153l-102 -161h-99zM155 612l49 161h153
l-103 -161h-99z" />
    <glyph glyph-name="Racute" unicode="&#x154;" horiz-adv-x="715" 
d="M63 0v744h354c144 0 254 -77 254 -213c0 -88 -42 -150 -138 -181v-3c75 -23 106 -64 117 -144c13 -101 9 -185 32 -195v-8h-168c-20 10 -19 91 -27 172c-9 75 -45 112 -128 112h-126v-284h-170zM233 609v-199h151c76 0 117 38 117 98c0 61 -36 101 -112 101h-156z
M275 785l43 131h189l-109 -131h-123z" />
    <glyph glyph-name="racute" unicode="&#x155;" horiz-adv-x="410" 
d="M203 532v-95h3c35 75 81 104 148 104c16 0 27 -1 33 -4v-137h-4c-11 2 -22 3 -33 3c-85 1 -141 -52 -141 -156v-247h-157v532h151zM161 612l53 161h183l-119 -161h-117z" />
    <glyph glyph-name="uni0156" unicode="&#x156;" horiz-adv-x="715" 
d="M63 0v744h354c144 0 254 -77 254 -213c0 -88 -42 -150 -138 -181v-3c75 -23 106 -64 117 -144c13 -101 9 -185 32 -195v-8h-168c-20 10 -19 91 -27 172c-9 75 -45 112 -128 112h-126v-284h-170zM233 609v-199h151c76 0 117 38 117 98c0 61 -36 101 -112 101h-156z
M285 -263v53c43 8 71 25 71 56h-67v103h151v-71c0 -95 -68 -136 -155 -141z" />
    <glyph glyph-name="uni0157" unicode="&#x157;" horiz-adv-x="410" 
d="M203 532v-95h3c35 75 81 104 148 104c16 0 27 -1 33 -4v-137h-4c-11 2 -22 3 -33 3c-85 1 -141 -52 -141 -156v-247h-157v532h151zM50 -263v53c43 8 71 25 71 56h-67v103h151v-71c0 -95 -68 -136 -155 -141z" />
    <glyph glyph-name="Rcaron" unicode="&#x158;" horiz-adv-x="715" 
d="M63 0v744h354c144 0 254 -77 254 -213c0 -88 -42 -150 -138 -181v-3c75 -23 106 -64 117 -144c13 -101 9 -185 32 -195v-8h-168c-20 10 -19 91 -27 172c-9 75 -45 112 -128 112h-126v-284h-170zM233 609v-199h151c76 0 117 38 117 98c0 61 -36 101 -112 101h-156z
M531 916l-108 -131h-153l-109 131h136l46 -57h2l48 57h138z" />
    <glyph glyph-name="rcaron" unicode="&#x159;" horiz-adv-x="410" 
d="M203 532v-95h3c35 75 81 104 148 104c16 0 27 -1 33 -4v-137h-4c-11 2 -22 3 -33 3c-85 1 -141 -52 -141 -156v-247h-157v532h151zM416 760l-108 -148h-153l-109 148h135l47 -78h2l49 78h137z" />
    <glyph glyph-name="Sacute" unicode="&#x15a;" horiz-adv-x="690" 
d="M355 -18c-200 0 -325 92 -330 253h172c9 -81 62 -117 158 -117c67 0 128 26 128 87c0 64 -63 80 -171 104c-145 32 -263 70 -263 224s125 224 290 224c164 0 280 -75 291 -222h-167c-9 59 -54 92 -129 92c-71 0 -117 -30 -117 -77c0 -58 65 -71 181 -97
c133 -29 257 -75 257 -231c0 -154 -130 -240 -300 -240zM268 785l43 131h189l-109 -131h-123z" />
    <glyph glyph-name="sacute" unicode="&#x15b;" horiz-adv-x="539" 
d="M273 -17c-155 0 -247 73 -255 181h148c9 -51 47 -78 108 -78c56 0 88 22 88 61c0 48 -63 55 -137 68c-95 18 -191 41 -191 166c0 109 99 166 224 166c148 0 221 -64 236 -157h-146c-10 38 -40 57 -90 57c-48 0 -79 -19 -79 -54c0 -41 58 -46 131 -59
c95 -16 203 -43 203 -176c0 -116 -101 -175 -240 -175zM201 612l53 161h183l-119 -161h-117z" />
    <glyph glyph-name="Scircumflex" unicode="&#x15c;" horiz-adv-x="690" 
d="M355 -18c-200 0 -325 92 -330 253h172c9 -81 62 -117 158 -117c67 0 128 26 128 87c0 64 -63 80 -171 104c-145 32 -263 70 -263 224s125 224 290 224c164 0 280 -75 291 -222h-167c-9 59 -54 92 -129 92c-71 0 -117 -30 -117 -77c0 -58 65 -71 181 -97
c133 -29 257 -75 257 -231c0 -154 -130 -240 -300 -240zM151 785l108 131h153l109 -131h-136l-46 57h-2l-48 -57h-138z" />
    <glyph glyph-name="scircumflex" unicode="&#x15d;" horiz-adv-x="539" 
d="M273 -17c-155 0 -247 73 -255 181h148c9 -51 47 -78 108 -78c56 0 88 22 88 61c0 48 -63 55 -137 68c-95 18 -191 41 -191 166c0 109 99 166 224 166c148 0 221 -64 236 -157h-146c-10 38 -40 57 -90 57c-48 0 -79 -19 -79 -54c0 -41 58 -46 131 -59
c95 -16 203 -43 203 -176c0 -116 -101 -175 -240 -175zM75 614l108 148h153l109 -148h-135l-47 78h-2l-49 -78h-137z" />
    <glyph glyph-name="Scedilla" unicode="&#x15e;" horiz-adv-x="690" 
d="M309 -210c-47 0 -86 13 -113 30l20 39c20 -9 44 -16 69 -16c27 0 49 9 49 33c0 20 -15 29 -35 29c-13 0 -22 -3 -33 -7l-18 26l56 60c-171 15 -275 103 -279 251h172c9 -81 62 -117 158 -117c67 0 128 26 128 87c0 64 -63 80 -171 104c-145 32 -263 70 -263 224
s125 224 290 224c164 0 280 -75 291 -222h-167c-9 59 -54 92 -129 92c-71 0 -117 -30 -117 -77c0 -58 65 -71 181 -97c133 -29 257 -75 257 -231c0 -151 -125 -237 -290 -240l-41 -37v-2c59 8 113 -14 113 -71c0 -51 -52 -82 -128 -82z" />
    <glyph glyph-name="scedilla" unicode="&#x15f;" horiz-adv-x="539" 
d="M236 -210c-47 0 -86 13 -113 30l20 39c20 -9 44 -16 69 -16c27 0 49 9 49 33c0 20 -15 29 -35 29c-13 0 -22 -3 -33 -7l-18 26l56 61c-129 12 -206 82 -213 179h148c9 -51 47 -78 108 -78c56 0 88 22 88 61c0 48 -63 55 -137 68c-95 18 -191 41 -191 166
c0 109 99 166 224 166c148 0 221 -64 236 -157h-146c-10 38 -40 57 -90 57c-48 0 -79 -19 -79 -54c0 -41 58 -46 131 -59c95 -16 203 -43 203 -176c0 -108 -92 -169 -219 -174l-43 -39v-2c59 8 113 -14 113 -71c0 -51 -52 -82 -128 -82z" />
    <glyph glyph-name="uni0162" unicode="&#x162;" horiz-adv-x="668" 
d="M27 599v145h614v-145h-222v-599h-171v599h-221zM257 -263v53c43 8 71 25 71 56h-67v103h151v-71c0 -95 -68 -136 -155 -141z" />
    <glyph glyph-name="uni0163" unicode="&#x163;" horiz-adv-x="389" 
d="M21 432v100h80v170h154v-170h104v-100h-104v-264c0 -40 22 -51 59 -51c11 0 25 1 36 2h8v-117c-17 -3 -48 -8 -91 -8c-99 0 -166 32 -166 140v298h-80zM143 -263v53c43 8 71 25 71 56h-67v103h151v-71c0 -95 -68 -136 -155 -141z" />
    <glyph glyph-name="uni021A" unicode="&#x21a;" horiz-adv-x="668" 
d="M27 599v145h614v-145h-222v-599h-171v599h-221zM257 -263v53c43 8 71 25 71 56h-67v103h151v-71c0 -95 -68 -136 -155 -141z" />
    <glyph glyph-name="uni021B" unicode="&#x21b;" horiz-adv-x="389" 
d="M21 432v100h80v170h154v-170h104v-100h-104v-264c0 -40 22 -51 59 -51c11 0 25 1 36 2h8v-117c-17 -3 -48 -8 -91 -8c-99 0 -166 32 -166 140v298h-80zM143 -263v53c43 8 71 25 71 56h-67v103h151v-71c0 -95 -68 -136 -155 -141z" />
    <glyph glyph-name="Tcaron" unicode="&#x164;" horiz-adv-x="668" 
d="M27 599v145h614v-145h-222v-599h-171v599h-221zM521 916l-108 -131h-153l-109 131h136l46 -57h2l48 57h138z" />
    <glyph glyph-name="tcaron" unicode="&#x165;" horiz-adv-x="389" 
d="M21 432v100h80v170h154v-170h104v-100h-104v-264c0 -40 22 -51 59 -51c11 0 25 1 36 2h8v-117c-17 -3 -48 -8 -91 -8c-99 0 -166 32 -166 140v298h-80zM298 559v50c40 4 58 18 59 45h-59v90h131v-58c0 -92 -48 -123 -131 -127z" />
    <glyph glyph-name="Tbar" unicode="&#x166;" horiz-adv-x="668" 
d="M27 599v145h614v-145h-222v-174h147v-101h-147v-324h-171v324h-146v101h146v174h-221z" />
    <glyph glyph-name="tbar" unicode="&#x167;" horiz-adv-x="389" 
d="M21 432v100h80v170h154v-170h104v-100h-104v-75h104v-92h-104v-97c0 -40 22 -51 59 -51c11 0 25 1 36 2h8v-117c-17 -3 -48 -8 -91 -8c-99 0 -166 32 -166 140v131h-80v92h80v75h-80z" />
    <glyph glyph-name="Utilde" unicode="&#x168;" horiz-adv-x="724" 
d="M364 -14c-203 0 -309 97 -309 273v485h170v-489c0 -81 43 -131 139 -131c89 0 135 53 135 134v486h171v-485c0 -175 -106 -273 -306 -273zM435 786c-61 0 -99 40 -130 40c-17 0 -31 -13 -34 -41h-86c0 93 49 141 108 141c63 0 95 -40 127 -40c20 0 31 13 34 38h86
c0 -84 -38 -138 -105 -138z" />
    <glyph glyph-name="utilde" unicode="&#x169;" horiz-adv-x="599" 
d="M547 0h-149v76h-3c-39 -63 -87 -91 -160 -91c-121 0 -187 78 -187 195v352h157v-322c0 -60 29 -93 85 -93c64 0 102 47 102 114v301h155v-532zM369 613c-61 0 -101 41 -131 41c-17 0 -32 -14 -35 -42h-84c0 93 49 141 108 141c64 0 96 -41 129 -41c20 0 31 13 34 39h84
c0 -84 -38 -138 -105 -138z" />
    <glyph glyph-name="Umacron" unicode="&#x16a;" horiz-adv-x="724" 
d="M364 -14c-203 0 -309 97 -309 273v485h170v-489c0 -81 43 -131 139 -131c89 0 135 53 135 134v486h171v-485c0 -175 -106 -273 -306 -273zM206 789v111h312v-111h-312z" />
    <glyph glyph-name="umacron" unicode="&#x16b;" horiz-adv-x="599" 
d="M547 0h-149v76h-3c-39 -63 -87 -91 -160 -91c-121 0 -187 78 -187 195v352h157v-322c0 -60 29 -93 85 -93c64 0 102 47 102 114v301h155v-532zM140 615v111h312v-111h-312z" />
    <glyph glyph-name="Ubreve" unicode="&#x16c;" horiz-adv-x="724" 
d="M364 -14c-203 0 -309 97 -309 273v485h170v-489c0 -81 43 -131 139 -131c89 0 135 53 135 134v486h171v-485c0 -175 -106 -273 -306 -273zM365 779c-96 0 -160 59 -164 142h91c7 -24 28 -45 72 -45c41 0 63 24 70 45h89c-3 -79 -62 -142 -158 -142z" />
    <glyph glyph-name="ubreve" unicode="&#x16d;" horiz-adv-x="599" 
d="M547 0h-149v76h-3c-39 -63 -87 -91 -160 -91c-121 0 -187 78 -187 195v352h157v-322c0 -60 29 -93 85 -93c64 0 102 47 102 114v301h155v-532zM299 606c-91 0 -163 60 -166 155h91c5 -36 30 -58 74 -58c41 0 67 25 72 58h89c-3 -92 -67 -155 -160 -155z" />
    <glyph glyph-name="Uring" unicode="&#x16e;" horiz-adv-x="724" 
d="M364 -14c-203 0 -309 97 -309 273v485h170v-489c0 -81 43 -131 139 -131c89 0 135 53 135 134v486h171v-485c0 -175 -106 -273 -306 -273zM363 746c-63 0 -115 47 -115 110c0 60 52 111 115 111c62 0 114 -51 114 -111c0 -63 -52 -110 -114 -110zM363 803
c31 0 52 22 52 53s-21 55 -52 55c-32 0 -53 -24 -53 -55s21 -53 53 -53z" />
    <glyph glyph-name="uring" unicode="&#x16f;" horiz-adv-x="599" 
d="M547 0h-149v76h-3c-39 -63 -87 -91 -160 -91c-121 0 -187 78 -187 195v352h157v-322c0 -60 29 -93 85 -93c64 0 102 47 102 114v301h155v-532zM297 596c-63 0 -115 47 -115 110c0 60 52 111 115 111c62 0 114 -51 114 -111c0 -63 -52 -110 -114 -110zM297 653
c31 0 52 22 52 53s-21 55 -52 55c-32 0 -53 -24 -53 -55s21 -53 53 -53z" />
    <glyph glyph-name="Uhungarumlaut" unicode="&#x170;" horiz-adv-x="724" 
d="M364 -14c-203 0 -309 97 -309 273v485h170v-489c0 -81 43 -131 139 -131c89 0 135 53 135 134v486h171v-485c0 -175 -106 -273 -306 -273zM406 785l35 131h156l-89 -131h-102zM209 785l36 131h156l-90 -131h-102z" />
    <glyph glyph-name="uhungarumlaut" unicode="&#x171;" horiz-adv-x="599" 
d="M547 0h-149v76h-3c-39 -63 -87 -91 -160 -91c-121 0 -187 78 -187 195v352h157v-322c0 -60 29 -93 85 -93c64 0 102 47 102 114v301h155v-532zM143 612l49 161h153l-103 -161h-99zM337 612l48 161h153l-102 -161h-99z" />
    <glyph glyph-name="Uogonek" unicode="&#x172;" horiz-adv-x="724" 
d="M403 -184c-80 0 -121 33 -121 84c0 41 25 68 53 87c-184 9 -280 104 -280 272v485h170v-489c0 -81 43 -131 139 -131c89 0 135 53 135 134v486h171v-485c0 -131 -60 -216 -173 -255c-45 -15 -88 -38 -88 -77c0 -18 11 -27 33 -27c12 0 21 1 29 4h2v-79
c-13 -5 -34 -9 -70 -9z" />
    <glyph glyph-name="uogonek" unicode="&#x173;" horiz-adv-x="599" 
d="M482 -184c-76 0 -118 33 -118 84s35 81 71 100h-37v76h-3c-39 -63 -87 -91 -160 -91c-121 0 -187 78 -187 195v352h157v-322c0 -60 29 -93 85 -93c64 0 102 47 102 114v301h155v-530c-40 -23 -59 -52 -59 -75c0 -18 11 -27 33 -27c12 0 21 1 29 4h2v-79
c-13 -5 -34 -9 -70 -9z" />
    <glyph glyph-name="Wcircumflex" unicode="&#x174;" horiz-adv-x="999" 
d="M211 0l-202 744h173l71 -291c13 -55 23 -123 31 -182l12 -102h2c5 35 10 71 16 106c9 60 22 132 33 184l66 285h161l66 -284c11 -52 24 -125 33 -185c5 -35 10 -71 15 -106h2c4 35 9 69 14 103c8 59 20 129 33 182l69 290h173l-204 -744h-167l-72 312
c-11 47 -20 110 -28 163c-5 31 -9 63 -13 94h-2c-4 -31 -8 -63 -13 -94c-8 -53 -17 -116 -28 -163l-73 -312h-168zM306 785l108 131h153l109 -131h-136l-46 57h-2l-48 -57h-138z" />
    <glyph glyph-name="wcircumflex" unicode="&#x175;" horiz-adv-x="822" 
d="M171 0l-164 532h160l56 -207c8 -32 15 -73 22 -106c3 -19 6 -39 9 -59h2c4 19 8 39 11 59c7 35 14 76 23 108l54 205h133l56 -205c9 -32 17 -73 24 -108c3 -20 7 -40 11 -60h2c3 19 6 39 9 59c7 33 14 75 23 107l57 207h155l-165 -532h-148l-56 217c-8 31 -16 71 -23 104
c-3 19 -7 39 -10 59h-2c-4 -20 -8 -40 -12 -59c-7 -33 -15 -73 -23 -104l-58 -217h-146zM223 614l108 148h153l109 -148h-135l-47 78h-2l-49 -78h-137z" />
    <glyph glyph-name="Ycircumflex" unicode="&#x176;" horiz-adv-x="702" 
d="M266 0v278l-255 466h187l80 -156c17 -35 35 -78 50 -114l24 -63h2c8 21 16 42 25 63c15 36 34 79 51 114l81 156h180l-255 -464v-280h-170zM163 785l108 131h153l109 -131h-136l-46 57h-2l-48 -57h-138z" />
    <glyph glyph-name="ycircumflex" unicode="&#x177;" horiz-adv-x="557" 
d="M168 -178c-5 0 -102 2 -105 2v123h8c3 0 47 -1 51 -1c47 0 73 18 76 54c0 19 -9 59 -28 107l-165 425h165l68 -204c12 -36 23 -83 31 -120c5 -22 9 -44 13 -65h2l15 66c9 37 20 83 32 119l65 204h156l-190 -545c-43 -123 -93 -165 -194 -165zM95 614l108 148h153
l109 -148h-135l-47 78h-2l-49 -78h-137z" />
    <glyph glyph-name="Zacute" unicode="&#x179;" horiz-adv-x="688" 
d="M36 0v138l275 334c23 27 53 58 78 85l45 45v3l-57 -3c-32 -1 -71 -2 -100 -2h-214v144h572v-134l-265 -324c-25 -31 -58 -66 -86 -94l-49 -49v-3l60 3c35 1 75 3 106 3h248v-146h-613zM280 785l43 131h189l-109 -131h-123z" />
    <glyph glyph-name="zacute" unicode="&#x17a;" horiz-adv-x="538" 
d="M36 0v117l190 215c16 17 37 39 56 55c11 9 22 19 33 28v3c-14 -1 -28 -3 -41 -4c-23 -3 -51 -4 -74 -4h-141v122h432v-113l-183 -208c-19 -20 -43 -42 -64 -61c-12 -11 -24 -21 -37 -31v-3c15 1 29 2 44 3c25 3 56 4 80 4h174v-123h-469zM215 612l53 161h183l-119 -161
h-117z" />
    <glyph glyph-name="Zdotaccent" unicode="&#x17b;" horiz-adv-x="688" 
d="M36 0v138l275 334c23 27 53 58 78 85l45 45v3l-57 -3c-32 -1 -71 -2 -100 -2h-214v144h572v-134l-265 -324c-25 -31 -58 -66 -86 -94l-49 -49v-3l60 3c35 1 75 3 106 3h248v-146h-613zM270 785v135h159v-135h-159z" />
    <glyph glyph-name="zdotaccent" unicode="&#x17c;" horiz-adv-x="538" 
d="M36 0v117l190 215c16 17 37 39 56 55c11 9 22 19 33 28v3c-14 -1 -28 -3 -41 -4c-23 -3 -51 -4 -74 -4h-141v122h432v-113l-183 -208c-19 -20 -43 -42 -64 -61c-12 -11 -24 -21 -37 -31v-3c15 1 29 2 44 3c25 3 56 4 80 4h174v-123h-469zM197 607v137h159v-137h-159z" />
    <glyph glyph-name="Zcaron" unicode="&#x17d;" horiz-adv-x="688" 
d="M36 0v138l275 334c23 27 53 58 78 85l45 45v3l-57 -3c-32 -1 -71 -2 -100 -2h-214v144h572v-134l-265 -324c-25 -31 -58 -66 -86 -94l-49 -49v-3l60 3c35 1 75 3 106 3h248v-146h-613zM536 916l-108 -131h-153l-109 131h136l46 -57h2l48 57h138z" />
    <glyph glyph-name="zcaron" unicode="&#x17e;" horiz-adv-x="538" 
d="M36 0v117l190 215c16 17 37 39 56 55c11 9 22 19 33 28v3c-14 -1 -28 -3 -41 -4c-23 -3 -51 -4 -74 -4h-141v122h432v-113l-183 -208c-19 -20 -43 -42 -64 -61c-12 -11 -24 -21 -37 -31v-3c15 1 29 2 44 3c25 3 56 4 80 4h174v-123h-469zM463 760l-108 -148h-153
l-109 148h135l47 -78h2l49 78h137z" />
    <glyph glyph-name="uni0218" unicode="&#x218;" horiz-adv-x="690" 
d="M355 -18c-200 0 -325 92 -330 253h172c9 -81 62 -117 158 -117c67 0 128 26 128 87c0 64 -63 80 -171 104c-145 32 -263 70 -263 224s125 224 290 224c164 0 280 -75 291 -222h-167c-9 59 -54 92 -129 92c-71 0 -117 -30 -117 -77c0 -58 65 -71 181 -97
c133 -29 257 -75 257 -231c0 -154 -130 -240 -300 -240zM258 -263v53c43 8 71 25 71 56h-67v103h151v-71c0 -95 -68 -136 -155 -141z" />
    <glyph glyph-name="uni0219" unicode="&#x219;" horiz-adv-x="539" 
d="M273 -17c-155 0 -247 73 -255 181h148c9 -51 47 -78 108 -78c56 0 88 22 88 61c0 48 -63 55 -137 68c-95 18 -191 41 -191 166c0 109 99 166 224 166c148 0 221 -64 236 -157h-146c-10 38 -40 57 -90 57c-48 0 -79 -19 -79 -54c0 -41 58 -46 131 -59
c95 -16 203 -43 203 -176c0 -116 -101 -175 -240 -175zM185 -263v53c43 8 71 25 71 56h-67v103h151v-71c0 -95 -68 -136 -155 -141z" />
    <glyph glyph-name="caron" unicode="&#x2c7;" horiz-adv-x="500" 
d="M435 760l-108 -148h-153l-109 148h135l47 -78h2l49 78h137z" />
    <glyph glyph-name="uni02C9" unicode="&#x2c9;" horiz-adv-x="500" 
d="M96 615v111h312v-111h-312z" />
    <glyph glyph-name="breve" unicode="&#x2d8;" horiz-adv-x="500" 
d="M272 606c-91 0 -163 60 -166 155h91c5 -36 30 -58 74 -58c41 0 67 25 72 58h89c-3 -92 -67 -155 -160 -155z" />
    <glyph glyph-name="dotaccent" unicode="&#x2d9;" horiz-adv-x="500" 
d="M170 607v137h159v-137h-159z" />
    <glyph glyph-name="ring" unicode="&#x2da;" horiz-adv-x="500" 
d="M251 596c-63 0 -115 47 -115 110c0 60 52 111 115 111c62 0 114 -51 114 -111c0 -63 -52 -110 -114 -110zM251 653c31 0 52 22 52 53s-21 55 -52 55c-32 0 -53 -24 -53 -55s21 -53 53 -53z" />
    <glyph glyph-name="ogonek" unicode="&#x2db;" horiz-adv-x="500" 
d="M225 -184c-80 0 -121 33 -121 84c0 53 42 84 79 100h97c-29 -23 -49 -50 -49 -73c0 -18 11 -27 33 -27c12 0 21 1 29 4h2v-79c-13 -5 -34 -9 -70 -9z" />
    <glyph glyph-name="hungarumlaut" unicode="&#x2dd;" horiz-adv-x="500" 
d="M289 612l48 161h153l-102 -161h-99zM95 612l49 161h153l-103 -161h-99z" />
    <glyph glyph-name="uni0394" unicode="&#x394;" horiz-adv-x="723" 
d="M27 0v112l240 632h188l241 -632v-112h-669zM203 132h308l-103 283c-17 47 -30 94 -38 130c-5 21 -9 41 -12 60h-2c-4 -19 -8 -39 -13 -60c-9 -36 -21 -83 -38 -130z" />
    <glyph glyph-name="uni03A9" unicode="&#x3a9;" horiz-adv-x="780" 
d="M40 0v130h113v2c-80 53 -121 142 -121 263c0 213 146 362 358 362s358 -149 358 -362c0 -121 -42 -210 -122 -263v-2h114v-130h-315v125c105 16 150 120 150 258c0 148 -66 236 -185 236s-185 -88 -185 -236c0 -138 45 -242 150 -258v-125h-315z" />
    <glyph glyph-name="uni03BC" unicode="&#x3bc;" horiz-adv-x="603" 
d="M52 -177v709h157v-322c0 -60 29 -93 85 -93c64 0 102 47 102 114v301h155v-532h-149v76h-3c-27 -48 -73 -84 -145 -84c-23 0 -39 7 -47 15h-2c1 -10 1 -21 2 -32c1 -19 2 -45 2 -68v-84h-157z" />
    <glyph glyph-name="pi" unicode="&#x3c0;" horiz-adv-x="677" 
d="M96 0v432h-75v100h626v-100h-81v-277c0 -32 12 -42 41 -42c11 0 19 2 28 3h3v-113c-21 -7 -43 -10 -78 -10c-91 0 -150 35 -150 138v301h-157v-432h-157z" />
    <glyph glyph-name="fraction" unicode="&#x2044;" horiz-adv-x="295" 
d="M-274 -130l627 874h104l-628 -874h-103z" />
    <glyph glyph-name="uni2113" unicode="&#x2113;" horiz-adv-x="435" 
d="M68 276v307c0 120 73 169 177 169c100 0 160 -47 160 -178c0 -167 -71 -266 -190 -331v-52c0 -56 19 -71 71 -71c27 0 41 5 61 10h3v-120c-27 -9 -65 -16 -108 -16c-105 0 -174 35 -174 167v22c-16 -5 -40 -13 -56 -17v91c17 5 41 12 56 19zM215 591v-241
c9 7 23 20 38 40c28 39 47 95 47 191c0 56 -15 70 -40 70c-23 0 -45 -16 -45 -60z" />
    <glyph glyph-name="Omega" unicode="&#x2126;" horiz-adv-x="780" 
d="M40 0v130h113v2c-80 53 -121 142 -121 263c0 213 146 362 358 362s358 -149 358 -362c0 -121 -42 -210 -122 -263v-2h114v-130h-315v125c105 16 150 120 150 258c0 148 -66 236 -185 236s-185 -88 -185 -236c0 -138 45 -242 150 -258v-125h-315z" />
    <glyph glyph-name="estimated" unicode="&#x212e;" horiz-adv-x="751" 
d="M721 364h-505v-275c43 -31 102 -50 179 -50c145 0 225 69 264 186h58c-32 -138 -144 -239 -322 -239c-232 0 -366 160 -366 387c0 228 152 385 360 385c88 0 163 -25 216 -72c88 -75 117 -182 116 -322zM389 709c-72 0 -132 -21 -173 -52v-244h321v258
c-36 21 -87 38 -148 38z" />
    <glyph glyph-name="partialdiff" unicode="&#x2202;" horiz-adv-x="616" 
d="M416 446c-23 100 -98 153 -243 173v132c285 -21 407 -171 407 -429c0 -197 -95 -338 -295 -338c-162 0 -254 100 -254 232c0 158 106 274 263 274c51 0 94 -13 122 -44zM287 94c85 0 127 88 127 172c0 72 -34 116 -98 116c-79 0 -128 -67 -128 -164
c0 -76 34 -124 99 -124z" />
    <glyph glyph-name="Delta" unicode="&#x2206;" horiz-adv-x="723" 
d="M27 0v112l240 632h188l241 -632v-112h-669zM203 132h308l-103 283c-17 47 -30 94 -38 130c-5 21 -9 41 -12 60h-2c-4 -19 -8 -39 -13 -60c-9 -36 -21 -83 -38 -130z" />
    <glyph glyph-name="product" unicode="&#x220f;" horiz-adv-x="764" 
d="M69 744h626v-848h-172v703h-283v-703h-171v848z" />
    <glyph glyph-name="summation" unicode="&#x2211;" horiz-adv-x="672" 
d="M630 -104h-581v143l256 289v2l-256 279v135h571v-134h-376v-2l228 -243v-67l-235 -260v-2h393v-140z" />
    <glyph glyph-name="minus" unicode="&#x2212;" horiz-adv-x="606" 
d="M53 279v126h500v-126h-500z" />
    <glyph glyph-name="uni2215" unicode="&#x2215;" horiz-adv-x="295" 
d="M-274 -130l627 874h104l-628 -874h-103z" />
    <glyph glyph-name="uni2219" unicode="&#x2219;" horiz-adv-x="257" 
d="M45 247v165h167v-165h-167z" />
    <glyph glyph-name="radical" unicode="&#x221a;" horiz-adv-x="683" 
d="M18 211v134h185l56 -143c13 -35 25 -68 33 -95c5 -15 9 -30 13 -43h2c3 13 7 28 11 43c7 27 15 60 26 95l170 542h160l-278 -848h-168l-134 315h-76z" />
    <glyph glyph-name="infinity" unicode="&#x221e;" horiz-adv-x="749" 
d="M194 127c-108 0 -167 86 -167 190s60 190 167 190c85 0 139 -50 184 -113c42 64 95 113 177 113c98 0 167 -74 167 -190s-69 -190 -167 -190c-83 0 -133 49 -177 114c-46 -65 -98 -114 -184 -114zM205 395c-43 0 -61 -35 -61 -78s18 -79 61 -79c41 0 71 38 95 78
c-24 43 -54 79 -95 79zM544 238c43 0 63 36 63 79s-20 78 -63 78c-39 0 -66 -36 -91 -79c25 -40 52 -78 91 -78z" />
    <glyph glyph-name="integral" unicode="&#x222b;" horiz-adv-x="387" 
d="M-1 -174v120h3c13 -3 26 -4 45 -4c44 0 65 13 65 60v585c0 124 58 176 177 176c29 0 65 -3 93 -11v-119h-2c-10 3 -24 5 -41 5c-47 0 -69 -13 -69 -60v-586c0 -121 -57 -176 -176 -176c-31 0 -67 3 -95 10z" />
    <glyph glyph-name="approxequal" unicode="&#x2248;" horiz-adv-x="606" 
d="M422 356c-77 0 -171 35 -222 35c-24 0 -38 -14 -42 -42h-103c1 121 55 171 134 171c78 0 170 -37 217 -37c29 0 38 12 41 39h104c0 -109 -40 -166 -129 -166zM422 136c-77 0 -171 35 -222 35c-24 0 -38 -14 -42 -42h-103c1 121 55 171 134 171c78 0 170 -36 217 -36
c29 0 38 11 41 38h104c0 -108 -40 -166 -129 -166z" />
    <glyph glyph-name="notequal" unicode="&#x2260;" horiz-adv-x="603" 
d="M61 372v119h277l53 104h103l-53 -104h106v-119h-166l-51 -99h217v-119h-277l-53 -104h-103l53 104h-106v119h166l51 99h-217z" />
    <glyph glyph-name="lessequal" unicode="&#x2264;" horiz-adv-x="541" 
d="M55 0v120h426v-120h-426zM481 146l-426 144v153l426 144v-131l-176 -52c-29 -9 -64 -18 -95 -25c-17 -4 -35 -8 -53 -13v-2c18 -4 36 -8 53 -11c31 -7 67 -15 95 -23l176 -50v-134z" />
    <glyph glyph-name="greaterequal" unicode="&#x2265;" horiz-adv-x="541" 
d="M486 120v-120h-426v120h426zM60 587l426 -144v-153l-426 -144v131l176 52c28 8 64 18 95 25c17 4 35 8 53 13v2c-18 3 -36 7 -53 11c-31 7 -67 15 -95 23l-176 50v134z" />
    <glyph glyph-name="lozenge" unicode="&#x25ca;" horiz-adv-x="633" 
d="M400 744l210 -373l-209 -371h-168l-210 372l209 372h168zM185 374l83 -158c17 -33 29 -58 37 -77c5 -11 8 -20 11 -28h2c3 8 6 17 11 28c7 19 19 45 36 77l80 152l-82 158c-17 32 -28 57 -36 76c-5 11 -9 20 -12 28h-2c-3 -8 -7 -17 -11 -28c-8 -19 -19 -44 -36 -76z" />
    <glyph glyph-name="fi" unicode="&#xfb01;" horiz-adv-x="644" 
d="M20 430v102h80v45c0 65 19 105 62 130c43 35 118 44 206 33v-112c-80 3 -111 -2 -111 -62v-34h111v-102h-111v-430h-157v430h-80zM435 0v532h156v-532h-156zM434 607v137h158v-137h-158z" />
    <glyph glyph-name="fl" unicode="&#xfb02;" horiz-adv-x="647" 
d="M20 430v102h80v45c0 65 19 105 62 130c43 35 118 44 206 33v-112c-80 3 -111 -2 -111 -62v-34h111v-102h-111v-430h-157v430h-80zM435 0v744h158v-744h-158z" />
    </font>
</defs>
</svg>
